<?xml version="1.0" encoding="UTF-8"?>
<svg width="29px" height="103px" viewBox="0 0 29 103" version="1.1" xmlns="http://www.w3.org/2000/svg" xmlns:xlink="http://www.w3.org/1999/xlink">
    <title>朝上箭头</title>
    <g id="朝上箭头" stroke="none" stroke-width="1" fill="none" fill-rule="evenodd">
        <path d="M0.0861061222,101.79397 L1.1966403,102.802292 L0.875428571,103.15493 L0.875428571,103.15493 L0.552417037,103.507283 L-0.551669089,102.491904 C-0.337882698,102.25944 -0.125290969,102.026796 0.0861061222,101.79397 Z M2.72296947,98.8083021 L3.86106238,99.7854124 L3.20496621,100.544158 L3.20496621,100.544158 L2.54064389,101.301597 L1.41639103,100.308594 C1.85737433,99.8093241 2.29290038,99.3092267 2.72296947,98.8083021 Z M5.27590796,95.7458659 L6.44214434,96.6892072 L5.80827245,97.4669056 L5.80827245,97.4669056 L5.16587714,98.2432489 L4.01374158,97.2827368 C4.44011393,96.7713026 4.86083594,96.2590123 5.27590796,95.7458659 Z M7.7333911,92.6108284 L8.92818306,93.517731 L8.31812889,94.3149221 L8.31812889,94.3149221 L7.6992429,95.1107085 L6.51875113,94.1852685 C6.92948108,93.6613411 7.33436094,93.1365278 7.7333911,92.6108284 Z M10.0884687,89.4021783 L11.3120741,90.2698129 L10.7278205,91.086599 L10.7278205,91.086599 L10.1344253,91.901931 L8.92523493,91.0143169 C9.31902942,90.4778535 9.70677387,89.9404739 10.0884687,89.4021783 Z M12.3340891,86.1188804 L13.5865797,86.9442696 L13.030222,87.7805959 L13.030222,87.7805959 L12.4644151,88.6154192 L11.2263509,87.7685443 C11.6018445,87.2196024 11.9710904,86.6697144 12.3340891,86.1188804 Z M14.4140443,82.8403686 L15.6945941,83.6215165 L15.1672088,84.4772956 L15.1672088,84.4772956 L14.6300665,85.3315233 L13.3638455,84.5273564 C13.7203563,83.9660034 14.0704224,83.4036741 14.4140443,82.8403686 Z M16.4259546,79.3997059 L17.7349044,80.1322701 L17.2397068,81.0073097 L17.2397068,81.0073097 L16.734454,81.8807518 L15.4395861,81.1235747 C15.77501,80.5499576 16.1037993,79.9753347 16.4259546,79.3997059 Z M18.3062,75.8810436 L19.6428592,76.561736 L19.1820366,77.4556663 L19.1820366,77.4556663 L18.710871,78.3479553 L17.3878886,77.6410482 C17.7008093,77.0554147 18.0069129,76.4687466 18.3062,75.8810436 Z M20.0422872,72.2941666 L21.4055644,72.9198465 L20.9811142,73.8322588 L20.9811142,73.8322588 L20.5460446,74.7429886 L19.19587,74.0895143 C19.4850005,73.492128 19.7671393,72.8936789 20.0422872,72.2941666 Z M21.6259501,68.6436066 L23.0143853,69.2112752 L22.6282773,70.1414762 L22.6282773,70.1414762 L22.2312912,71.0699572 L20.8552046,70.4729768 C21.1192738,69.8642767 21.3761887,69.2544868 21.6259501,68.6436066 Z M23.0518947,64.9284537 L24.463692,65.4352362 L24.1183691,66.3809303 L24.1183691,66.3809303 L23.7619655,67.3248768 L22.3615611,66.7874128 C22.5989522,66.1688718 22.8290632,65.5492191 23.0518947,64.9284537 Z M24.3130391,61.1533527 L25.746036,61.5966581 L25.4429492,62.5572961 L25.4429492,62.5572961 L25.1285944,63.5161623 L23.7058647,63.0409358 C23.9156524,62.4128748 24.1180437,61.7836807 24.3130391,61.1533527 Z M25.4018343,57.3287037 L26.8535043,57.7063993 L26.5940319,58.6808251 L26.5940319,58.6808251 L26.3231331,59.6534602 L24.8804447,59.2427897 C25.0617357,58.6059134 25.235532,57.9678851 25.4018343,57.3287037 Z M26.3128082,53.4651952 L27.780322,53.775684 L27.5659493,54.7608068 L27.5659493,54.7608068 L27.3400658,55.7441324 L25.8800991,55.399898 C26.0318808,54.7561617 26.176117,54.1112611 26.3128082,53.4651952 Z M27.0444513,49.5623806 L28.5247883,49.8044602 L28.3561793,50.7992425 L28.3561793,50.7992425 L28.1760006,51.7922254 L26.7016783,51.5158672 C26.8235169,50.8658798 26.9377745,50.214718 27.0444513,49.5623806 Z M27.5898631,45.6658713 L29.0797716,45.8395743 L28.9571947,46.8405327 L28.9571947,46.8405327 L28.8230688,47.8397021 L27.3375852,47.6315232 C27.4292438,46.9774831 27.5133364,46.3222662 27.5898631,45.6658713 Z M27.958707,41.7065825 L29.455056,41.8111762 L29.3788941,42.8175535 L29.3788941,42.8175535 L29.2912225,43.8221548 L27.7976786,43.6831345 C27.8588954,43.0254617 27.9125715,42.3666114 27.958707,41.7065825 Z M28.1450793,37.7302854 L29.6446473,37.7662835 L29.6146829,38.7757809 L29.6146829,38.7757809 L29.5732993,39.7835228 L28.0749373,39.7134409 C28.1058014,39.0535624 28.1291821,38.3925109 28.1450793,37.7302854 Z M29.650578,33.7233058 L29.6660743,34.7321907 L29.6660743,34.7321907 L29.6703223,35.7393521 L28.1703237,35.7373007 L28.166146,34.7468575 L28.166146,34.7468575 L28.150906,33.7546737 L29.650578,33.7233058 Z M29.4773179,29.6890686 L29.5371624,30.6966937 L29.5371624,30.6966937 L29.5859389,31.7026282 L28.0873252,31.7671037 L28.0393386,30.7774657 L28.0393386,30.7774657 L27.9804601,29.7861087 L29.4773179,29.6890686 Z M29.131031,25.6765862 L29.2337826,26.6807926 L29.2337826,26.6807926 L29.3256877,27.6833464 L27.8312466,27.8123652 L27.740787,26.825582 L27.740787,26.825582 L27.6396449,25.8371088 L29.131031,25.6765862 Z M28.6162796,21.6747419 L28.7605251,22.674348 L28.7605251,22.674348 L28.8941641,23.6723415 L27.4064341,23.8638086 L27.2748266,22.8809872 L27.2748266,22.8809872 L27.1327636,21.8965083 L28.6162796,21.6747419 Z M27.9401786,17.696628 L28.1238791,18.6882784 L28.1238791,18.6882784 L28.2972753,19.6783647 L26.8185069,19.9298484 L26.6476474,18.9542488 L26.6476474,18.9542488 L26.466621,17.9770349 L27.9401786,17.696628 Z M27.1104078,13.749426 L27.3318335,14.7330734 L27.3318335,14.7330734 L27.5432481,15.7152029 L26.0753646,16.0239389 L25.8669163,15.0555914 L25.8669163,15.0555914 L25.6485807,14.0856723 L27.1104078,13.749426 Z M22.0255612,-0.63544904 L31.135395,9.06369674 L26.332,10.587 L26.3939711,10.8198668 L26.3939711,10.8198668 L26.6418033,11.7947245 L25.1863899,12.1577284 L24.9418831,11.1959526 L24.9418831,11.1959526 L24.9,11.041 L20.173899,12.5415706 L22.0255612,-0.63544904 Z" fill="#FFFFFF" fill-rule="nonzero"></path>
    </g>
</svg>