<?xml version="1.0" encoding="UTF-8"?>
<svg width="29px" height="103px" viewBox="0 0 29 103" version="1.1" xmlns="http://www.w3.org/2000/svg" xmlns:xlink="http://www.w3.org/1999/xlink">
    <title>朝下箭头</title>
    <g id="朝下箭头" stroke="none" stroke-width="1" fill="none" fill-rule="evenodd">
        <path d="M3.00542971,90.6519501 L6.7764299,93.8814327 C6.80792631,93.8411187 6.83938803,93.8007994 6.87081507,93.7604749 L8.0539395,94.6825468 L7.916,94.857 L11.7395957,98.1328821 L-0.433677219,103.506328 L3.00542971,90.6519501 Z M9.26971451,90.5799613 L10.4816397,91.4638376 L9.8868009,92.2725404 L9.8868009,92.2725404 L9.28292952,93.0798103 L8.08540883,92.176514 C8.48615719,91.6452327 8.8809256,91.1130484 9.26971451,90.5799613 Z M11.5617375,87.3249243 L12.8026173,88.167668 L12.2347599,88.9961742 L12.2347599,88.9961742 L11.6575554,89.8231974 L10.4311396,88.9595399 C10.8141879,88.4156015 11.1910537,87.8707296 11.5617375,87.3249243 Z M13.7397129,83.9943074 L15.0094935,84.7928418 L14.4707432,85.6410835 L14.4707432,85.6410835 L13.9223339,86.4877932 L12.6669622,85.6667926 C13.0309281,85.1102614 13.3885115,84.5527663 13.7397129,83.9943074 Z M15.7963683,80.5870242 L17.0947525,81.3381555 L16.5874278,82.2057048 L16.5874278,82.2057048 L16.0701432,83.0716753 L14.7859749,82.2964903 C15.1293469,81.7276617 15.4661444,81.1578397 15.7963683,80.5870242 Z M17.7214485,77.1074095 L19.0478183,77.8079401 L18.5738071,78.6948956 L18.5738071,78.6948956 L18.0895346,79.5802262 L16.7770434,78.8540259 C17.0986109,78.2728439 17.4134124,77.6906385 17.7214485,77.1074095 Z M19.4661982,73.6423065 L20.8189811,74.290364 L20.3796186,75.195673 L20.3796186,75.195673 L19.9297156,76.0993152 L18.5903188,75.4240256 C18.8892209,74.8311709 19.1811805,74.2372647 19.4661982,73.6423065 Z M21.1144563,70.0099365 L22.4931271,70.6009244 L22.0918375,71.5236242 L22.0918375,71.5236242 L21.6797569,72.4446209 L20.3137759,71.8248663 C20.5877688,71.2209673 20.854662,70.6159909 21.1144563,70.0099365 Z M22.6039721,66.318615 L24.0068205,66.849667 L23.6452441,67.7893838 L23.6452441,67.7893838 L23.272637,68.7273638 L21.881606,68.166086 C22.1296443,67.5513654 22.3704328,66.9355419 22.6039721,66.318615 Z M23.9320047,62.5619093 L25.3570199,63.030238 L25.037148,63.985559 L25.037148,63.985559 L24.7060412,64.9391159 L23.2917822,64.4392445 C23.5125664,63.8145918 23.7259737,63.1888137 23.9320047,62.5619093 Z M25.0883901,58.7557883 L26.5331446,59.1591298 L26.256494,60.1287604 L26.256494,60.1287604 L25.9684367,61.0966059 L24.5332072,60.6605829 C24.7257514,60.0267972 24.9108122,59.391866 25.0883901,58.7557883 Z M26.0700469,54.8995947 L27.5318368,55.2360027 L27.3001173,56.2169928 L27.3001173,56.2169928 L27.0568908,57.1961885 L25.6032303,56.8262274 C25.7663799,56.185176 25.9219853,55.5429654 26.0700469,54.8995947 Z M26.871774,51.0041062 L28.34762,51.2722081 L28.1616153,52.2633595 L28.1616153,52.2633595 L27.9640325,53.2527125 L26.4948078,52.9504233 C26.6280501,52.3028216 26.7537055,51.6540497 26.871774,51.0041062 Z M27.4904825,47.0804085 L28.9772172,47.2794567 L28.8374729,48.278992 L28.8374729,48.278992 L28.6861216,49.2767316 L27.2044219,49.0431377 C27.3073794,48.3900727 27.4027329,47.73583 27.4904825,47.0804085 Z M27.9257041,43.1340932 L29.4200778,43.2638901 L29.3269958,44.268171 L29.3269958,44.268171 L29.2223619,45.2706717 L27.7313931,45.1063188 C27.8037309,44.4500875 27.8685013,43.7926793 27.9257041,43.1340932 Z M28.1780098,39.1709191 L29.6767731,39.2318178 L29.6300708,40.2392708 L29.6300708,40.2392708 L29.5719064,41.2449642 L28.07493,41.1497722 C28.1168001,40.4913273 28.1511601,39.8317099 28.1780098,39.1709191 Z M29.7491516,35.2257039 L29.7478709,36.2343298 L29.7478709,36.2343298 L29.7352589,37.2412223 L28.2355064,37.2139745 L28.2479066,36.2239699 L28.2479066,36.2239699 L28.2491657,35.2322192 L29.7491516,35.2257039 Z M29.6412858,31.1804059 L29.685001,32.1892273 L29.685001,32.1892273 L29.7175355,33.1963438 L28.218073,33.236494 L28.1860718,32.2458958 L28.1860718,32.2458958 L28.1430711,31.2535683 L29.6412858,31.1804059 Z M29.3567031,27.1505833 L29.4441428,28.1570016 L29.4441428,28.1570016 L29.5206045,29.1617506 L28.024339,29.2675306 L27.9490968,28.2788107 L27.9490968,28.2788107 L27.8630465,27.2883871 L29.3567031,27.1505833 Z M28.9010821,23.1372274 L29.0305297,24.1374891 L29.0305297,24.1374891 L29.1492764,25.1361273 L27.6588697,25.305502 L27.5419563,24.3222843 L27.5419563,24.3222843 L27.4144986,23.3374007 L28.9010821,23.1372274 Z M28.2843835,19.1659184 L28.4543408,20.1617124 L28.4543408,20.1617124 L28.6138294,21.1559209 L27.1315919,21.3860776 L26.9744769,20.4066676 L26.9744769,20.4066676 L26.8070368,19.4256234 L28.2843835,19.1659184 Z M27.5072203,15.2008523 L27.7156459,16.1881409 L27.7156459,16.1881409 L27.9139117,17.1738928 L26.4419557,17.4625889 L26.2465229,16.4909238 L26.2465229,16.4909238 L26.0410597,15.5176693 L27.5072203,15.2008523 Z M26.5815072,11.2738361 L26.8262875,12.2513362 L26.8262875,12.2513362 L27.0612322,13.22735 L25.6012906,13.5716909 L25.3695589,12.6090255 L25.3695589,12.6090255 L25.1281071,11.6448185 L26.5815072,11.2738361 Z M25.5149159,7.38603909 L25.794913,8.35620947 L25.794913,8.35620947 L26.0653389,9.3249342 L24.6188169,9.72189043 L24.3519211,8.76581233 L24.3519211,8.76581233 L24.0755573,7.80823195 L25.5149159,7.38603909 Z M24.3170696,3.54489594 L24.62888,4.50227004 L24.62888,4.50227004 L24.9314804,5.45825326 L23.4995335,5.90493903 L23.2006956,4.96084331 L23.2006956,4.96084331 L22.8927383,4.01530042 L24.3170696,3.54489594 Z M22.9926127,-0.257902694 L23.3358239,0.690846135 L23.3358239,0.690846135 L23.670095,1.63824466 L22.2535849,2.1317007 L21.923266,1.19550462 L21.923266,1.19550462 L21.5840869,0.257902694 L22.9926127,-0.257902694 Z" fill="#FFFFFF" fill-rule="nonzero"></path>
    </g>
</svg>