<?xml version="1.0" encoding="UTF-8"?>
<svg width="36px" height="36px" viewBox="0 0 36 36" version="1.1" xmlns="http://www.w3.org/2000/svg" xmlns:xlink="http://www.w3.org/1999/xlink">
    <title>发布icon</title>
    <g id="发布icon" stroke="none" stroke-width="1" fill="none" fill-rule="evenodd">
        <g fill-rule="nonzero">
            <rect id="矩形" fill="#000000" opacity="0" x="0" y="0" width="36" height="36"></rect>
            <path d="M18,0 C27.9409091,0 36,8.0590909 36,18 C36,27.9409091 27.9409091,36 18,36 C8.0590909,36 0,27.9409091 0,18 C0,8.0590909 8.0590909,0 18,0 Z M18,10.6363635 C17.0962613,10.6363635 16.3636363,11.3689886 16.3636363,12.2727273 L16.3636363,16.3636363 L12.2727273,16.3636363 L12.15,16.3677273 C11.2695107,16.4299789 10.5970745,17.1793479 10.6301933,18.0614136 C10.6633122,18.9434792 11.3900489,19.6403136 12.2727273,19.6363635 L16.3636363,19.6363635 L16.3636363,23.7272727 L16.3677273,23.85 C16.4299789,24.7304893 17.1793479,25.4029255 18.0614136,25.3698067 C18.9434792,25.3366878 19.6403136,24.6099511 19.6363637,23.7272727 L19.6363637,19.6363635 L23.7272727,19.6363635 L23.85,19.6322727 C24.7304893,19.5700211 25.4029255,18.8206521 25.3698067,17.9385864 C25.3366878,17.0565208 24.6099511,16.3596864 23.7272727,16.3636363 L19.6363637,16.3636363 L19.6363637,12.2727273 L19.6322727,12.15 C19.5680481,11.2960824 18.8563294,10.6360926 18,10.6363635 Z" id="形状" fill="#333333"></path>
        </g>
    </g>
</svg>