<?xml version="1.0" encoding="UTF-8"?>
<svg width="18px" height="18px" viewBox="0 0 18 18" version="1.1" xmlns="http://www.w3.org/2000/svg" xmlns:xlink="http://www.w3.org/1999/xlink">
    <title>灰色积分icon</title>
    <g id="灰色积分icon" stroke="none" stroke-width="1" fill="none" fill-rule="evenodd">
        <g id="积分icon" fill-rule="nonzero">
            <rect id="矩形" fill="#000000" opacity="0" x="0" y="0" width="18" height="18"></rect>
            <path d="M1.18828125,8.94902344 C1.18828125,11.7398818 2.67718638,14.3187412 5.09414059,15.7141704 C7.5110948,17.1095996 10.4889052,17.1095996 12.9058594,15.7141704 C15.3228136,14.3187412 16.8117187,11.7398818 16.8117187,8.94902344 C16.8117187,4.6347303 13.3142931,1.13730469 9,1.13730469 C4.68570686,1.13730469 1.18828125,4.6347303 1.18828125,8.94902344 Z" id="路径" fill="#B2B2B2"></path>
            <path d="M15.6041016,8.07011719 C15.6041016,5.74101563 14.5845703,3.65273438 12.9673828,2.221875 C11.8054687,1.5328125 10.4484375,1.13730469 9,1.13730469 C4.68632812,1.13730469 1.18828125,4.63535156 1.18828125,8.94902344 C1.18828125,11.278125 2.2078125,13.3664063 3.825,14.7972656 C4.98867187,15.4845703 6.34394531,15.8818359 7.79414062,15.8818359 C12.1078125,15.8818359 15.6041016,12.3837891 15.6041016,8.07011719 Z" id="路径" fill="#D8D8D8"></path>
            <path d="M9.984375,1.80175781 C5.67070312,1.80175781 2.17265625,5.29980469 2.17265625,9.61347656 C2.17265625,11.7667969 3.04628906,13.7162109 4.4578125,15.1294922 C5.4703125,15.609375 6.59882812,15.8818359 7.79414062,15.8818359 C12.1078125,15.8818359 15.6058594,12.3837891 15.6058594,8.07011719 C15.6058594,5.91679688 14.7322266,3.96738281 13.3207031,2.55410156 C12.3082031,2.07421875 11.1779297,1.80175781 9.984375,1.80175781 Z" id="路径" fill="#C3C3C3"></path>
            <path d="M10.3394188,6.14600043 L12.0168415,7.82342313 C12.7115087,8.51823997 12.7115087,9.64460198 12.0168415,10.3394188 L10.3394188,12.0168415 C9.64460196,12.7115087 8.51823996,12.7115087 7.82342312,12.0168415 L6.14600043,10.3394188 C5.45133319,9.64460198 5.45133319,8.51823997 6.14600043,7.82342313 L7.82342312,6.14600043 C8.51823996,5.45133319 9.64460196,5.45133319 10.3394188,6.14600043 Z M9.0811442,7.23010083 C8.92382395,7.23010083 8.77294907,7.29260518 8.66171934,7.40385989 L7.40358312,8.66199611 C7.29232841,8.77322583 7.22982406,8.92410072 7.22982406,9.08142097 C7.22982406,9.23874123 7.29232841,9.38961611 7.40358312,9.50084584 L8.66171934,10.758982 C8.77294907,10.8702368 8.92382395,10.9327411 9.0811442,10.9327411 C9.23846446,10.9327411 9.38933934,10.8702368 9.50056906,10.758982 L10.7587053,9.50084584 C10.86996,9.38961611 10.9324643,9.23874123 10.9324643,9.08142097 C10.9324643,8.92410072 10.86996,8.77322583 10.7587053,8.66199611 L9.50056906,7.40385989 C9.38933934,7.29260518 9.23846446,7.23010083 9.0811442,7.23010083 Z" id="形状结合" fill="#FFFFFF"></path>
        </g>
    </g>
</svg>