<?xml version="1.0" encoding="UTF-8"?>
<svg width="20px" height="20px" viewBox="0 0 20 20" version="1.1" xmlns="http://www.w3.org/2000/svg" xmlns:xlink="http://www.w3.org/1999/xlink">
    <title>检查正确</title>
    <g id="检查正确" stroke="none" stroke-width="1" fill="none" fill-rule="evenodd">
        <g id="选择点-选中">
            <path d="M0,9.99954177 C0,4.48523937 4.48629548,0 10,0 C15.5137045,0 20,4.48604126 20,9.99954177 C20,15.5131568 15.5146224,20 10,20 C4.48629548,20 0,15.5139587 0,9.99954177 Z" id="Fill-" fill="#27C05E"></path>
            <path d="M8.5314632,13.286812 C8.41492033,13.286812 8.29837745,13.2424845 8.21004826,13.1535154 L5.13345363,10.0775723 C4.95551546,9.89929672 4.95551546,9.61268059 5.13345363,9.43440501 C5.31074028,9.25744413 5.59865947,9.25744413 5.77562035,9.43440501 L8.5318006,12.1899221 L14.2246938,6.49734305 C14.4013289,6.31906747 14.6895855,6.31906747 14.8665464,6.49734305 C15.0444845,6.67495546 15.0444845,6.96222312 14.8665464,7.13983553 L8.85287814,13.1541669 C8.76390906,13.2424845 8.64801771,13.2868003 8.5314632,13.2868003 L8.5314632,13.286812 Z" id="Shape" fill="#FFFFFF" fill-rule="nonzero"></path>
        </g>
    </g>
</svg>