<?xml version="1.0" encoding="UTF-8"?>
<svg width="34px" height="34px" viewBox="0 0 34 34" version="1.1" xmlns="http://www.w3.org/2000/svg" xmlns:xlink="http://www.w3.org/1999/xlink">
    <title>店铺信息icon</title>
    <defs>
        <linearGradient x1="12.9715408%" y1="19.4222677%" x2="87.4870556%" y2="85.1051549%" id="linearGradient-1">
            <stop stop-color="#AACFFF" offset="0%"></stop>
            <stop stop-color="#49A6FF" offset="99.9890734%"></stop>
        </linearGradient>
    </defs>
    <g id="店铺信息icon" stroke="none" stroke-width="1" fill="none" fill-rule="evenodd">
        <g>
            <rect id="矩形" x="0" y="0" width="34" height="34"></rect>
            <path d="M31.8825379,16.8028061 C31.8825379,16.8028061 30.621993,8.2449413 29.8089251,5.17238558 C28.9962197,2.09982987 25.6725695,2.01287074 25.6725695,2.01287074 L9.36882071,2.01287074 C4.85999013,1.76467491 4.15562123,5.18832809 4.15562123,5.18832809 L2.02149939,17.0006381 C1.95374374,17.3506486 2.06244265,18.231472 2.12258937,18.4793055 C3.09653156,22.4957301 7.49448926,22.766028 9.47208467,20.1742838 C9.73948398,19.823911 10.0409423,19.8467378 10.2101502,20.1507324 C11.9036792,23.1982873 15.6421969,22.2167362 16.6570823,20.0764548 C16.8581753,19.6528914 17.3407984,19.6231803 17.643706,20.1434858 C19.365859,23.1015453 22.4539949,22.0333974 23.7185255,20.0101484 C24.0373756,19.5003506 24.4420979,19.724995 24.5134768,19.8757241 C24.566377,19.9880463 26.0961329,22.9084236 29.2940547,21.5525859 C32.4919764,20.1967482 31.8825379,16.8028061 31.8825379,16.8028061 Z M21.6112161,12.7765986 C21.3445414,13.0432733 20.9764145,13.208858 20.5716922,13.208858 L13.3982891,13.208858 C12.5888446,13.208858 11.9265059,12.5468816 11.9265059,11.7374371 C11.9265059,11.3327149 12.0920906,10.9649502 12.3587653,10.6979133 C12.6254399,10.4312386 12.9935669,10.2656539 13.3982891,10.2656539 L20.5716922,10.2656539 C21.3811367,10.2656539 22.0434754,10.9279926 22.0434754,11.7374371 C22.0434754,12.1421594 21.8778907,12.509924 21.6112161,12.7765986 Z M29.2940547,24.0888937 L29.2940547,30.2608175 C29.2940547,31.2173679 28.5114225,32 27.5548722,32 L6.30387392,32 C5.34732356,32 4.56469144,31.2173679 4.56469144,30.2608175 L4.56469144,24.0950533 C6.23068332,24.7896393 8.28654195,24.6265909 9.47208467,23.0729213 C9.73948398,22.7225485 10.0409423,22.7453752 10.2101502,23.0493698 C11.9036792,26.0969248 15.6421969,25.1153737 16.6570823,22.9750922 C16.8581753,22.5515288 17.3407984,22.5218178 17.643706,23.0421232 C19.365859,26.0001828 22.4539949,24.9320349 23.7185255,22.9087859 C24.0373756,22.398988 24.4420979,22.6236325 24.5134768,22.7743616 C24.566377,22.8866838 26.0961329,25.4447314 29.2940547,24.0888937 Z" id="形状" fill="url(#linearGradient-1)" fill-rule="nonzero"></path>
        </g>
    </g>
</svg>