<?xml version="1.0" encoding="UTF-8"?>
<svg width="26px" height="26px" viewBox="0 0 26 26" version="1.1" xmlns="http://www.w3.org/2000/svg" xmlns:xlink="http://www.w3.org/1999/xlink">
    <title>我的icon-选中</title>
    <defs>
        <linearGradient x1="-23.0425481%" y1="-20.2699626%" x2="86.9131526%" y2="86.4264957%" id="linearGradient-1">
            <stop stop-color="#FFBCBC" offset="0%"></stop>
            <stop stop-color="#FB749F" offset="100%"></stop>
        </linearGradient>
    </defs>
    <g id="我的icon-选中" stroke="none" stroke-width="1" fill="none" fill-rule="evenodd">
        <g id="我的icon-未选中" fill-rule="nonzero">
            <rect id="矩形" fill="#000000" opacity="0" x="0" y="0" width="26" height="26"></rect>
            <g id="编组" transform="translate(2.000000, 2.000000)" fill="url(#linearGradient-1)">
                <path d="M11,0 C12.4862423,0 13.9273101,0.289117033 15.2825462,0.862833685 C16.5926078,1.41848051 17.7671458,2.20903492 18.7790555,3.22094455 C19.7909651,4.2328542 20.5815195,5.40739218 21.1371663,6.71745379 C21.7108829,8.07268992 22,9.5137577 22,11 C22,12.4862423 21.710883,13.9273101 21.1371663,15.2825462 C20.5815195,16.5926078 19.7909651,17.7671458 18.7790555,18.7790555 C17.7671458,19.7909651 16.5926078,20.5815195 15.2825462,21.1371663 C13.9273101,21.7108829 12.4862423,22 11,22 C9.5137577,22 8.07268995,21.710883 6.71745379,21.1371663 C5.40739218,20.5815195 4.2328542,19.7909651 3.22094455,18.7790555 C2.2090349,17.7671458 1.41848049,16.5926078 0.862833685,15.2825462 C0.289117058,13.9273101 0,12.4862423 0,11 C0,9.5137577 0.289117033,8.07268995 0.862833685,6.71745379 C1.41848051,5.40739218 2.20903492,4.2328542 3.22094455,3.22094455 C4.2328542,2.2090349 5.40739218,1.41848049 6.71745379,0.862833685 C8.07268992,0.289117058 9.5137577,0 11,0 Z M15.5474427,15.3107584 C15.3805997,15.3107584 15.2176367,15.3689594 15.0857143,15.4737213 C13.9255732,16.389418 12.5015873,16.886067 11,16.886067 C9.49841269,16.886067 8.07442681,16.389418 6.91428571,15.4737213 C6.78236331,15.3689594 6.61940035,15.3107584 6.45255731,15.3107584 C5.7541446,15.3107584 5.44373897,16.1954145 5.99470899,16.6261023 C7.37213404,17.7125221 9.11040565,18.3604938 11,18.3604938 C12.8895944,18.3604938 14.627866,17.7125221 16.005291,16.6261023 C16.5523809,16.1954145 16.2458554,15.3107584 15.5474427,15.3107584 Z" id="形状结合"></path>
            </g>
        </g>
    </g>
</svg>