<?xml version="1.0" encoding="UTF-8"?>
<svg width="35px" height="34px" viewBox="0 0 35 34" version="1.1" xmlns="http://www.w3.org/2000/svg" xmlns:xlink="http://www.w3.org/1999/xlink">
    <title>更换皮肤icon</title>
    <defs>
        <linearGradient x1="12.7955252%" y1="28.7380555%" x2="87.6652511%" y2="74.4100462%" id="linearGradient-1">
            <stop stop-color="#F4ACC2" offset="0%"></stop>
            <stop stop-color="#EF7F9E" offset="100%"></stop>
        </linearGradient>
        <linearGradient x1="12.7955252%" y1="28.7325717%" x2="87.6652511%" y2="74.4163419%" id="linearGradient-2">
            <stop stop-color="#F4ACC2" offset="0%"></stop>
            <stop stop-color="#EF7F9E" offset="100%"></stop>
        </linearGradient>
    </defs>
    <g id="更换皮肤icon" stroke="none" stroke-width="1" fill="none" fill-rule="evenodd">
        <g>
            <rect id="矩形" x="0" y="0" width="34" height="34"></rect>
            <path d="M26.1607143,3.21071429 L24.2571429,3.21071429 C23.7535714,3.21071429 23.2678571,3.42857143 22.9428571,3.81785714 C21.9678571,4.98214286 19.1785714,5.73571429 17.4214286,5.73571429 C15.6642857,5.73571429 12.875,4.98214286 11.9,3.81785714 C11.5714286,3.42857143 11.0892857,3.21071429 10.5857143,3.21071429 L8.67857143,3.21071429 C8.21428571,3.21071429 7.77142857,3.39642857 7.44285714,3.73214286 L1.11785714,10.1642857 C0.710714286,10.5785714 0.710714286,11.2464286 1.11785714,11.6607143 L4.975,15.5857143 C5.38214286,16 6.03928571,16 6.44642857,15.5857143 L6.575,15.4571429 C6.71428571,15.3178571 6.95,15.4142857 6.95,15.6142857 L6.95,29.2964286 C6.95,30.1857143 7.65714286,30.9071429 8.53214286,30.9071429 L26.3071429,30.9071429 C27.1821429,30.9071429 27.8892857,30.1857143 27.8892857,29.2964286 L27.8892857,15.6107143 C27.8892857,15.4107143 28.125,15.3107143 28.2642857,15.4535714 L28.3928571,15.5821429 C28.8,15.9964286 29.4571429,15.9964286 29.8642857,15.5821429 L33.7214286,11.6571429 C34.1285714,11.2428571 34.1285714,10.575 33.7214286,10.1607143 L27.3964286,3.72857143 C27.0678571,3.39642857 26.6214286,3.21071429 26.1607143,3.21071429 Z" id="路径" fill="url(#linearGradient-1)" fill-rule="nonzero"></path>
            <path d="M8.47857143,12.0214286 C8.47857143,14.7690452 10.7059548,16.9964286 13.4535714,16.9964286 C16.2011881,16.9964286 18.4285714,14.7690452 18.4285714,12.0214286 C18.4285714,9.27381194 16.2011881,7.04642857 13.4535714,7.04642857 C10.7059548,7.04642857 8.47857143,9.27381194 8.47857143,12.0214286 Z" id="路径" fill="#F489A8" fill-rule="nonzero"></path>
            <path d="M26.1607143,3.85357143 C26.4535714,3.85357143 26.7285714,3.97142857 26.9392857,4.18214286 L33.2642857,10.6142857 C33.425,10.7785714 33.425,11.0464286 33.2642857,11.2071429 L29.4071429,15.1321429 C29.3321429,15.2071429 29.2357143,15.25 29.1285714,15.25 C29.025,15.25 28.925,15.2071429 28.85,15.1321429 L28.7214286,15.0035714 C28.5571429,14.8357143 28.3392857,14.7464286 28.1107143,14.7464286 C27.6357143,14.7464286 27.2464286,15.1357143 27.2464286,15.6142857 L27.2464286,29.2964286 C27.2464286,29.8285714 26.825,30.2642857 26.3071429,30.2642857 L8.53214286,30.2642857 C8.01428571,30.2642857 7.59285714,29.8321429 7.59285714,29.2964286 L7.59285714,15.6107143 C7.59285714,15.1321429 7.20357143,14.7428571 6.72857143,14.7428571 C6.49642857,14.7428571 6.27857143,14.8357143 6.11785714,15 L5.99285714,15.1285714 C5.91785714,15.2035714 5.82142857,15.2464286 5.71428571,15.2464286 C5.61071429,15.2464286 5.51071429,15.2035714 5.43571429,15.1285714 L1.57857143,11.2035714 C1.41785714,11.0392857 1.41785714,10.7714286 1.57857143,10.6107143 L7.9,4.17857143 C8.10714286,3.96785714 8.38571429,3.85 8.67857143,3.85 L10.5821429,3.85 C10.9035714,3.85 11.2035714,3.98928571 11.4035714,4.22857143 C12.075,5.02857143 13.275,5.53571429 14.1678571,5.825 C15.2464286,6.17142857 16.4607143,6.37857143 17.4178571,6.37857143 C18.375,6.37857143 19.5892857,6.17142857 20.6678571,5.825 C21.5607143,5.53928571 22.7642857,5.02857143 23.4321429,4.22857143 C23.6321429,3.98928571 23.9321429,3.85 24.2535714,3.85 L26.1607143,3.85357143 M26.1607143,3.21071429 L24.2571429,3.21071429 C23.7535714,3.21071429 23.2678571,3.42857143 22.9428571,3.81785714 C21.9678571,4.98214286 19.1785714,5.73571429 17.4214286,5.73571429 C15.6642857,5.73571429 12.875,4.98214286 11.9,3.81785714 C11.5714286,3.42857143 11.0892857,3.21071429 10.5857143,3.21071429 L8.67857143,3.21071429 C8.21428571,3.21071429 7.77142857,3.39642857 7.44285714,3.73214286 L1.11785714,10.1642857 C0.710714286,10.5785714 0.710714286,11.2464286 1.11785714,11.6607143 L4.975,15.5857143 C5.17857143,15.7928571 5.44285714,15.8964286 5.71071429,15.8964286 C5.97857143,15.8964286 6.24285714,15.7928571 6.44642857,15.5857143 L6.575,15.4571429 C6.62142857,15.4107143 6.675,15.3928571 6.72857143,15.3928571 C6.84285714,15.3928571 6.95,15.4821429 6.95,15.6178571 L6.95,29.3 C6.95,30.1892857 7.65714286,30.9107143 8.53214286,30.9107143 L26.3071429,30.9107143 C27.1821429,30.9107143 27.8892857,30.1892857 27.8892857,29.3 L27.8892857,15.6107143 C27.8892857,15.475 27.9964286,15.3857143 28.1107143,15.3857143 C28.1642857,15.3857143 28.2214286,15.4071429 28.2642857,15.45 L28.3928571,15.5785714 C28.5964286,15.7857143 28.8607143,15.8892857 29.1285714,15.8892857 C29.3964286,15.8892857 29.6607143,15.7857143 29.8642857,15.5785714 L33.7214286,11.6535714 C34.1285714,11.2392857 34.1285714,10.5714286 33.7214286,10.1571429 L27.3964286,3.72857143 C27.0678571,3.39642857 26.6214286,3.21071429 26.1607143,3.21071429 Z" id="形状" fill="url(#linearGradient-2)" fill-rule="nonzero"></path>
            <path d="M10.0464286,12.4285714 L17.4321429,12.4285714 C18.1107143,12.4285714 18.6642857,12.9785714 18.6642857,13.6607143 L18.6642857,23.5071429 C18.6642857,24.1857143 18.1142857,24.7392857 17.4321429,24.7392857 L10.0464286,24.7392857 C9.36785714,24.7392857 8.81428571,24.1892857 8.81428571,23.5071429 L8.81428571,13.6607143 C8.81785714,12.9821429 9.36785714,12.4285714 10.0464286,12.4285714 Z" id="路径" fill="#FFB1C6" fill-rule="nonzero"></path>
            <path d="M4.98928571,9.53571429 C4.73928571,9.28571429 4.73928571,8.87857143 4.98928571,8.625 L8.125,5.48928571 C8.375,5.23928571 8.78214286,5.23928571 9.03571429,5.48928571 C9.28928571,5.73928571 9.28571429,6.14642857 9.03571429,6.4 L5.9,9.53571429 C5.64642857,9.78928571 5.23928571,9.78928571 4.98928571,9.53571429 Z M3.23214286,11.2964286 C2.98214286,11.0464286 2.98214286,10.6392857 3.23214286,10.3857143 L3.5,10.1178571 C3.75,9.86785714 4.15714286,9.86785714 4.41071429,10.1178571 C4.66071429,10.3678571 4.66071429,10.775 4.41071429,11.0285714 L4.14285714,11.2964286 C3.88928571,11.5464286 3.48214286,11.5464286 3.23214286,11.2964286 Z" id="形状" fill="#FFFFFF" fill-rule="nonzero"></path>
        </g>
    </g>
</svg>