<?xml version="1.0" encoding="UTF-8"?>
<svg width="34px" height="34px" viewBox="0 0 34 34" version="1.1" xmlns="http://www.w3.org/2000/svg" xmlns:xlink="http://www.w3.org/1999/xlink">
    <title>客户管理icon</title>
    <defs>
        <linearGradient x1="24.1796444%" y1="19.4222677%" x2="76.1401399%" y2="85.1051549%" id="linearGradient-1">
            <stop stop-color="#D3CBFF" offset="0%"></stop>
            <stop stop-color="#ABA9FF" offset="100%"></stop>
        </linearGradient>
    </defs>
    <g id="客户管理icon" stroke="none" stroke-width="1" fill="none" fill-rule="evenodd">
        <g>
            <rect id="矩形" x="0" y="0" width="34" height="34"></rect>
            <g id="编组-3" transform="translate(3.400000, 1.000000)">
                <path d="M-3.76495372e-14,25.3164922 C0.0744477028,19.7350416 3.75322776,14.844891 9.09538221,13.2272488 C7.106565,11.8925079 5.91114761,9.65588616 5.90476637,7.2607972 C5.97389638,3.18212663 9.33680547,-0.0680473702 13.4154761,0.00108263953 C17.3963011,0.0680855721 20.6081877,3.27997218 20.6751906,7.2607972 C20.6698729,9.65588616 19.4744555,11.8925079 17.4845748,13.2272488 C22.8320469,14.842764 26.5150811,19.7361051 26.5884653,25.3218099 C26.5884653,31.5658451 21.9014506,31.9157493 15.7148465,31.9157493 C14.929955,31.9157493 14.1206022,31.9104316 13.2942326,31.9104316 C5.95581623,31.9104316 -3.76495372e-14,32.3571178 -3.76495372e-14,25.3164922 Z" id="Fill-1" fill="url(#linearGradient-1)"></path>
                <polygon id="Fill-3" fill="#FEFEFE" points="10.8711726 15.0402631 15.7177181 15.0402631 14.7477709 16.9780304 11.8400563 16.9780304"></polygon>
                <polygon id="Fill-5" fill="#FEFEFE" points="15.7172927 26.6691006 13.1998968 28.606868 10.8707472 26.6691006 11.8396309 17.948084 14.748409 17.948084"></polygon>
            </g>
        </g>
    </g>
</svg>