<?xml version="1.0" encoding="UTF-8"?>
<svg width="46px" height="46px" viewBox="0 0 46 46" version="1.1" xmlns="http://www.w3.org/2000/svg" xmlns:xlink="http://www.w3.org/1999/xlink">
    <title>订单管理</title>
    <defs>
        <linearGradient x1="12.7955252%" y1="19.4222677%" x2="87.6652511%" y2="85.1051549%" id="linearGradient-1">
            <stop stop-color="#FADCC7" offset="0%"></stop>
            <stop stop-color="#F6BD87" offset="100%"></stop>
        </linearGradient>
        <filter x="-57.1%" y="-52.2%" width="214.3%" height="204.3%" filterUnits="objectBoundingBox" id="filter-2">
            <feOffset dx="0" dy="2" in="SourceAlpha" result="shadowOffsetOuter1"></feOffset>
            <feGaussianBlur stdDeviation="2" in="shadowOffsetOuter1" result="shadowBlurOuter1"></feGaussianBlur>
            <feColorMatrix values="0 0 0 0 1   0 0 0 0 0.713760069   0 0 0 0 0.442854421  0 0 0 1 0" type="matrix" in="shadowBlurOuter1" result="shadowMatrixOuter1"></feColorMatrix>
            <feMerge>
                <feMergeNode in="shadowMatrixOuter1"></feMergeNode>
                <feMergeNode in="SourceGraphic"></feMergeNode>
            </feMerge>
        </filter>
    </defs>
    <g id="订单管理" stroke="none" stroke-width="1" fill="none" fill-rule="evenodd">
        <g>
            <circle id="椭圆形" fill="url(#linearGradient-1)" cx="23" cy="23" r="23"></circle>
            <g id="全部订单" filter="url(#filter-2)" transform="translate(12.500000, 11.500000)">
                <path d="M15,1 L18,1 C19.6568542,1 21,2.23121694 21,3.75 L21,20.25 C21,21.7687831 19.6568542,23 18,23 L3,23 C1.34314575,23 0,21.7687831 0,20.25 L0,3.75 C0,2.23121694 1.34314575,1 3,1 L6,1" id="路径" fill="#FFFFFF"></path>
                <rect id="矩形" fill="#FFBD80" x="7" y="0" width="7" height="2" rx="1"></rect>
                <rect id="矩形" fill="#FFE2C8" x="4" y="6" width="11" height="2" rx="1"></rect>
                <rect id="矩形" fill="#FFE2C8" x="4" y="14" width="13" height="2" rx="1"></rect>
                <rect id="矩形" fill="#FFE2C8" x="4" y="10" width="7" height="2" rx="1"></rect>
            </g>
        </g>
    </g>
</svg>