<?xml version="1.0" encoding="UTF-8"?>
<svg width="26px" height="26px" viewBox="0 0 26 26" version="1.1" xmlns="http://www.w3.org/2000/svg" xmlns:xlink="http://www.w3.org/1999/xlink">
    <title>团作icon-选中</title>
    <defs>
        <linearGradient x1="-23.0425481%" y1="-15.6717395%" x2="86.9131526%" y2="84.0428719%" id="linearGradient-1">
            <stop stop-color="#FFBCBC" offset="0%"></stop>
            <stop stop-color="#FB749F" offset="100%"></stop>
        </linearGradient>
    </defs>
    <g id="团作icon-选中" stroke="none" stroke-width="1" fill="none" fill-rule="evenodd">
        <rect id="矩形" fill="#000000" fill-rule="nonzero" opacity="0" x="0" y="0" width="26" height="26"></rect>
        <g id="编组" transform="translate(1.000000, 1.000000)" fill-rule="nonzero">
            <path d="M11.96948,-5.05875535e-14 C13.604409,-5.05875535e-14 15.1160541,0.401563891 16.5044477,1.20412672 C17.8909068,2.00794117 18.9926744,3.09545789 19.8108314,4.46775175 C20.5660045,5.73440261 20.9853253,7.11542344 21.0678202,8.60592717 L21.079,8.921 L21.0793043,8.92069565 L21.2882964,9.04057323 C21.459342,9.14457077 21.6234359,9.25681037 21.7804045,9.37726144 L22.0104916,9.56409281 L22.2297603,9.76321841 C22.5904123,10.1071373 22.8998129,10.4902968 23.1567,10.9104678 C23.4162758,11.3310778 23.6151858,11.7870035 23.7539711,12.2799058 C23.8930534,12.7738872 23.962492,13.2773049 23.962492,13.7922004 C23.962492,15.0706667 23.571746,16.2128829 22.7928224,17.212346 C22.0753346,18.1351447 21.1663691,18.7710424 20.0705076,19.1180972 L19.896,19.168 L21.1025775,23.0297757 L21.00297,23.1652174 L19.7682444,23.1652174 L19.6692514,23.0938672 L19.2566837,21.8559997 L18.1513136,18.1541665 L18.2512991,18.019963 L18.3443478,18.0406957 L18.585788,18.0348427 C19.4749255,17.9887492 20.2581788,17.6890807 20.9377294,17.1344992 L21.1204919,16.9769286 L21.2981219,16.8067116 C22.1156136,15.9823317 22.5237584,14.9929078 22.5237584,13.8368737 C22.5237584,13.1602548 22.3727571,12.5322466 22.0697665,11.9469223 C21.8105448,11.4461321 21.4704037,11.0149909 21.0491489,10.6524689 L20.968,10.587 L20.937047,10.7860587 C20.709549,12.034541 20.2421598,13.1778683 19.5354319,14.2135678 L19.316234,14.5210464 L19.082679,14.8220525 C18.1126424,16.021903 16.9370608,16.9176949 15.5597572,17.5058529 L15.328,17.599 L16.6225898,21.7959711 L16.9894684,23.009532 L16.8895852,23.1440761 L15.6760477,23.1440761 L15.673,23.142 L8.291,23.142 L8.28883506,23.1440761 L7.05645324,23.1440761 L6.95711917,23.0077719 L7.34711104,21.7955427 L8.63582609,17.5972174 L8.37794098,17.4931991 C7.22971262,17.0031044 6.22634419,16.3018578 5.36922556,15.391067 L5.11647885,15.111545 L4.87251547,14.8194601 C3.90992894,13.6206383 3.29284375,12.2648093 3.02285606,10.7567364 L2.977,10.476 L2.99478261,10.5850435 L2.91637096,10.6496364 C2.6364537,10.8907341 2.39246229,11.1626194 2.18384745,11.4659405 L2.03401084,11.6993356 L1.89738896,11.9445799 C1.59441837,12.5298656 1.4434213,13.1579151 1.4434213,13.8345298 C1.4434213,14.9920377 1.85094171,15.9793581 2.66895663,16.8042659 C3.42897316,17.5685803 4.33258902,17.9779307 5.38178089,18.0325098 L5.62648718,18.0388073 L5.69234859,18.0176426 L5.71351331,18.0176426 L5.813499,18.1518456 L4.7071597,21.8568212 L4.29558448,23.0915469 L4.19659144,23.162897 L2.9618658,23.162897 L2.86224161,23.0275091 L4.0653913,19.1655652 L3.89243758,19.1158787 C2.98968692,18.8298096 2.21254655,18.3463404 1.56459988,17.668041 L1.35340752,17.4347287 L1.16974375,17.2101209 C0.390723378,16.2105708 6.84283548e-14,15.0683859 6.84283548e-14,13.7898566 C6.84283548e-14,12.7602613 0.264720884,11.8057669 0.793452261,10.9324721 C1.26954602,10.1440277 1.89573047,9.51331768 2.66987017,9.0419967 L2.93339364,8.89079527 L2.87895652,8.92173913 L2.88655498,8.61675752 C2.89711168,8.3735464 2.91821851,8.13168981 2.94984919,7.89105668 L3.00518478,7.53100818 L3.07628642,7.17269654 C3.20631101,6.58417039 3.38882436,6.02237573 3.62353128,5.48591982 C3.85519288,4.95637058 4.13994934,4.44923497 4.4777245,3.96300583 C4.81054269,3.48391228 5.17848651,3.04357085 5.58348409,2.63857392 C5.9862701,2.23816311 6.43368121,1.87188383 6.9205318,1.54415314 C7.40809721,1.21594127 7.92448753,0.937482693 8.46505773,0.711244542 C9.01006274,0.484147209 9.57624019,0.308703681 10.1630144,0.185671142 C10.7534349,0.0618928068 11.3556163,-5.05875535e-14 11.96948,-5.05875535e-14 Z" id="形状结合" fill="url(#linearGradient-1)"></path>
            <path d="M16.0852322,9.52592797 L14.8505065,9.52592797 C14.8505065,10.3208588 14.5682869,10.9982 14.0061914,11.5626393 C13.4440959,12.1247348 12.7644108,12.4069545 11.9718238,12.4069545 C11.7107689,12.4069545 11.4591127,12.3716799 11.2145348,12.2987636 C10.9699335,12.2258708 10.7417858,12.1294459 10.5324825,12.0071452 C10.3231792,11.8848446 10.1326733,11.7366681 9.95864446,11.5626393 C9.78459221,11.3886105 9.63643919,11.1981046 9.51413854,10.9887778 C9.39183789,10.7794511 9.29306921,10.548983 9.22249672,10.2950064 C9.14960384,10.0433502 9.11430588,9.78698291 9.11430588,9.52592797 L7.87958023,9.52592797 C7.87958023,10.6665726 8.27941289,11.6378995 9.08139861,12.4375414 C9.88338432,13.2395271 10.8500001,13.6393363 11.9835898,13.6393363 C13.1171795,13.6393363 14.0837953,13.2395271 14.8857811,12.4375414 C15.685423,11.6378995 16.0852322,10.6665726 16.0852322,9.52592797 Z" id="路径" stroke="#FFFFFF" stroke-width="0.2" fill="#FFFFFF"></path>
        </g>
    </g>
</svg>