<?xml version="1.0" encoding="UTF-8"?>
<svg width="26px" height="26px" viewBox="0 0 26 26" version="1.1" xmlns="http://www.w3.org/2000/svg" xmlns:xlink="http://www.w3.org/1999/xlink">
    <title>首页icon-选中</title>
    <defs>
        <linearGradient x1="-21.3540049%" y1="-20.2699626%" x2="86.0598218%" y2="86.4264957%" id="linearGradient-1">
            <stop stop-color="#FFBCBC" offset="0%"></stop>
            <stop stop-color="#FB749F" offset="100%"></stop>
        </linearGradient>
    </defs>
    <g id="首页icon-选中" stroke="none" stroke-width="1" fill="none" fill-rule="evenodd">
        <g fill-rule="nonzero" id="首页">
            <g>
                <rect id="矩形" fill="#000000" opacity="0" x="0" y="0" width="26" height="26"></rect>
                <g id="编组-2" transform="translate(2.000000, 2.000000)" fill="url(#linearGradient-1)">
                    <path d="M10.8087891,7.10542736e-14 C11.9637481,7.10542736e-14 13.0668378,0.391281622 13.9156343,1.10175967 L20.5392262,6.64699963 C21.2390644,7.23299107 21.6407199,8.06822173 21.6407199,8.93856399 L21.6407199,18.0154464 C21.6407199,19.0687946 21.1863969,20.0537816 20.3612742,20.7892634 C19.5608891,21.5024014 18.502753,21.895279 17.3815755,21.895279 L4.25887835,21.895279 C3.13770089,21.895279 2.07983073,21.5024014 1.27971168,20.7892634 C0.454588914,20.0537816 -3.60600438e-13,19.0687946 -3.60600438e-13,18.0154464 L-3.60600438e-13,8.937766 C-3.60600438e-13,8.06955171 0.399793527,7.23565104 1.09723772,6.6499256 L7.69609189,1.10654762 C8.5443564,0.393941592 9.64851004,0.000797991071 10.8047991,7.10542736e-14 L10.8087891,7.10542736e-14 Z M10.8202269,9.86024368 C8.49541295,9.86024368 6.60417411,11.7514825 6.60417411,14.0762965 L6.60417411,14.0762965 L6.60417411,18.4692374 C6.60417411,18.8953646 6.94943824,19.2406287 7.37556548,19.2406287 C7.80169271,19.2406287 8.14695685,18.8953646 8.14695685,18.4692374 L8.14695685,18.4692374 L8.14695685,14.0762965 C8.14695685,12.602407 9.34607143,11.4030264 10.8202269,11.4030264 C11.5344289,11.4030264 12.2058054,11.6809933 12.7106678,12.1858557 C13.2155301,12.690718 13.493497,13.3620945 13.493497,14.0762965 L13.493497,14.0762965 L13.493497,18.4689714 C13.493497,18.8950986 13.8387612,19.2403627 14.2648884,19.2403627 C14.6910156,19.2403627 15.0362798,18.8950986 15.0362798,18.4695033 L15.0362798,18.4695033 L15.0362798,14.0765625 C15.0362798,12.9500651 14.5976507,11.891131 13.8015216,11.0950019 C13.0053925,10.2986068 11.9464583,9.86024368 10.8202269,9.86024368 Z" id="形状结合"></path>
                </g>
            </g>
        </g>
    </g>
</svg>