<?xml version="1.0" encoding="UTF-8"?>
<svg width="26px" height="26px" viewBox="0 0 26 26" version="1.1" xmlns="http://www.w3.org/2000/svg" xmlns:xlink="http://www.w3.org/1999/xlink">
    <title>看看icon-未选中</title>
    <g id="看看icon-未选中" stroke="none" stroke-width="1" fill="none" fill-rule="evenodd">
        <rect id="矩形" fill="#000000" fill-rule="nonzero" opacity="0" x="0" y="0" width="26" height="26"></rect>
        <g id="发现，" transform="translate(2.000000, 2.000000)" fill-rule="nonzero">
            <rect id="矩形" fill="#000000" opacity="0" x="0" y="0" width="22" height="22"></rect>
            <path d="M11,22 C4.92486775,22 0,17.0751322 0,11 C0,4.92486775 4.92486775,0 11,0 C17.0751322,0 22,4.92486775 22,11 C21.9930289,17.0722424 17.0722424,21.9930289 11,22 Z M11,1.65 C5.83613759,1.65 1.65,5.83613759 1.65,11 C1.65,16.1638624 5.83613759,20.35 11,20.35 C16.1638624,20.35 20.35,16.1638624 20.35,11 C20.3442031,5.83854064 16.1614594,1.65579687 11,1.65 Z M9.4446,12.5554 C8.5855,11.6963 6.33325,6.3327 6.33325,6.3327 C6.33325,6.3327 11.69685,8.58495 12.55595,9.44405 C13.4151256,10.3032256 13.4151255,11.6962244 12.55595,12.5554 C11.6967744,13.4145755 10.3037756,13.4145756 9.4446,12.5554 L9.4446,12.5554 Z" id="形状" fill="#C3C3C3"></path>
        </g>
    </g>
</svg>