<?xml version="1.0" encoding="UTF-8"?>
<svg width="34px" height="34px" viewBox="0 0 34 34" version="1.1" xmlns="http://www.w3.org/2000/svg" xmlns:xlink="http://www.w3.org/1999/xlink">
    <title>实名认证icon</title>
    <defs>
        <linearGradient x1="12.7955252%" y1="27.193055%" x2="87.6652511%" y2="76.1838035%" id="linearGradient-1">
            <stop stop-color="#AACFFF" offset="0%"></stop>
            <stop stop-color="#49A6FF" offset="99.9890734%"></stop>
        </linearGradient>
    </defs>
    <g id="实名认证icon" stroke="none" stroke-width="1" fill="none" fill-rule="evenodd">
        <g>
            <rect id="矩形" x="0" y="0" width="34" height="34"></rect>
            <path d="M30.0909091,6.36363636 L19.4242424,6.36363636 L19.4242424,4.42424243 C19.4242424,3.0860606 18.3381818,2 17,2 C15.6618182,2 14.5757576,3.0860606 14.5757576,4.42424243 L14.5757576,6.36363636 L3.90909092,6.36363636 C2.30230302,6.36363636 1,7.66593938 1,9.27272728 L1,26.7272727 C1,28.3340606 2.30230302,29.6363636 3.90909092,29.6363636 L30.0909091,29.6363636 C31.697697,29.6363636 33,28.3340606 33,26.7272727 L33,9.27272728 C33,7.66593943 31.697697,6.36363636 30.0909091,6.36363636 Z M17,3.45454548 C17.5357576,3.45454548 17.969697,3.88848487 17.969697,4.42424247 C17.969697,4.96000003 17.5357576,5.39393946 17,5.39393946 C16.4642424,5.39393946 16.030303,4.96000007 16.030303,4.42424247 C16.030303,3.88848487 16.4642424,3.45454548 17,3.45454548 Z M10.6969697,10.4848485 C12.9350303,10.4848485 14.7488485,12.2991515 14.7488485,14.5367273 C14.7488485,16.7743031 12.9350303,18.5886061 10.6969697,18.5886061 C8.45890911,18.5886061 6.64509092,16.774303 6.64509092,14.5367273 C6.64509092,12.2991515 8.45890911,10.4848485 10.6969697,10.4848485 Z M17,26.2424242 L4.39393941,26.2424242 L4.39393941,24.4416969 C4.39393941,21.9549091 6.40945455,19.9393939 8.89624242,19.9393939 L12.4981818,19.9393939 C14.9844849,19.9393939 17,21.9549091 17,24.441697 L17,26.2424242 Z M29.6060606,17.0303031 L20.3939394,17.0303031 L20.3939394,15.5757576 L29.6060606,15.5757576 L29.6060606,17.0303031 Z M30.0909091,13.6363636 L17.969697,13.6363636 L17.969697,12.1818182 L30.0909091,12.1818182 L30.0909091,13.6363636 Z" id="形状" fill="url(#linearGradient-1)" fill-rule="nonzero"></path>
        </g>
    </g>
</svg>