<?xml version="1.0" encoding="UTF-8"?>
<svg width="34px" height="34px" viewBox="0 0 34 34" version="1.1" xmlns="http://www.w3.org/2000/svg" xmlns:xlink="http://www.w3.org/1999/xlink">
    <title>常见问题icon</title>
    <defs>
        <linearGradient x1="12.7955252%" y1="19.4222677%" x2="87.6652511%" y2="85.1051549%" id="linearGradient-1">
            <stop stop-color="#FAC3BA" offset="0%"></stop>
            <stop stop-color="#FF9C85" offset="99.9262456%"></stop>
        </linearGradient>
    </defs>
    <g id="常见问题icon" stroke="none" stroke-width="1" fill="none" fill-rule="evenodd">
        <g>
            <rect id="矩形" x="0" y="0" width="34" height="34"></rect>
            <g id="编组" transform="translate(1.000000, 1.000000)">
                <path d="M15.9998897,0 C24.8363034,0 31.9998897,7.16358621 31.9998897,16 C31.9998897,24.8364138 24.8363034,32 15.9998897,32 C7.16347586,32 -0.000110344828,24.8364138 -0.000110344828,16 C-0.000110344828,7.16358621 7.16347586,0 15.9998897,0" id="Fill-1" fill="url(#linearGradient-1)"></path>
                <path d="M15.9051034,20.4645517 C16.3166897,20.4524138 16.7161379,20.6102069 17.0085517,20.9015172 C17.2976552,21.2005517 17.4543448,21.6044138 17.4444138,22.0215172 C17.462069,22.4485517 17.2998621,22.8634483 16.9942069,23.1624828 C16.7073103,23.4515862 16.3122759,23.6104828 15.9051034,23.5983448 C15.4957241,23.5983448 15.1028966,23.4328276 14.816,23.1415172 C14.5235862,22.8435862 14.3657931,22.4386207 14.3812414,22.0215172 C14.3657931,21.6033103 14.5235862,21.1983448 14.8171034,20.9015172 C15.1062069,20.6157241 15.4990345,20.457931 15.9051034,20.4645517 M16.2571034,8.48882759 C17.4035862,8.43255172 18.5268966,8.82868966 19.3842759,9.59227586 C20.2008276,10.3646897 20.6355862,11.456 20.5771034,12.5782069 C20.6124138,13.4852414 20.3542069,14.3790345 19.8444138,15.1304828 C19.6336552,15.3798621 19.0653793,15.9271724 18.1417931,16.7702069 C17.8041379,17.0526897 17.5337931,17.4068966 17.3495172,17.8074483 C17.1497931,18.230069 17.0482759,18.6913103 17.0526897,19.1569655 L17.0526897,19.4482759 L14.7773793,19.4482759 L14.7773793,19.158069 C14.7542069,18.4595862 14.8888276,17.7644138 15.1735172,17.1244138 C15.7969655,16.1246897 16.5793103,15.2331034 17.4885517,14.4827586 L17.7257931,14.1925517 C18.0667586,13.7765517 18.2554483,13.257931 18.2598621,12.7194483 C18.2863448,12.1291034 18.0888276,11.552 17.7081379,11.1006897 C17.2855172,10.6935172 16.7106207,10.4816552 16.1246897,10.5191724 C15.3975172,10.4518621 14.688,10.7751724 14.2642759,11.369931 C13.897931,11.9823448 13.7246897,12.6907586 13.769931,13.4035862 L11.5122759,13.4035862 C11.4306207,12.073931 11.8951724,10.7707586 12.7988966,9.792 C13.7213793,8.89710345 14.9737931,8.42482759 16.2571034,8.48882759" id="Fill-3" fill="#FEFEFE"></path>
            </g>
        </g>
    </g>
</svg>