<?xml version="1.0" encoding="UTF-8"?>
<svg width="34px" height="34px" viewBox="0 0 34 34" version="1.1" xmlns="http://www.w3.org/2000/svg" xmlns:xlink="http://www.w3.org/1999/xlink">
    <title>收益明细icon</title>
    <defs>
        <linearGradient x1="22.0553056%" y1="19.4222677%" x2="78.2907886%" y2="85.1051549%" id="linearGradient-1">
            <stop stop-color="#AACFFF" offset="0%"></stop>
            <stop stop-color="#49A6FF" offset="99.9890734%"></stop>
        </linearGradient>
    </defs>
    <g id="收益明细icon" stroke="none" stroke-width="1" fill="none" fill-rule="evenodd">
        <g id="客户管理icon">
            <rect id="矩形" x="0" y="0" width="34" height="34"></rect>
            <g id="账单" transform="translate(2.000000, 2.000000)">
                <rect id="矩形" fill="#000000" fill-rule="nonzero" opacity="0" x="0" y="0" width="30" height="30"></rect>
                <rect id="矩形" fill="url(#linearGradient-1)" x="2" y="0" width="26" height="30" rx="4"></rect>
                <path d="M10.9678623,9.0691556 C10.3675346,9.0691556 9.87427167,8.58431471 9.87427167,7.99423703 C9.87427167,7.40415936 10.3675346,6.91931847 10.9678623,6.91931847 L12.6464858,6.91931847 L11.2317007,5.52868955 C10.8072651,5.10774242 10.8072651,4.42370333 11.2317007,4.00651466 C11.6599599,3.58932598 12.3558813,3.58932598 12.7803168,4.00651466 L15.0172068,6.20521173 L17.2540969,4.00651466 C17.6823562,3.58932598 18.3782775,3.58932598 18.802713,4.00651466 C19.2271486,4.42746179 19.2271486,5.11150088 18.802713,5.52868955 L17.3879279,6.91931847 L19.0359614,6.91931847 C19.6362891,6.91931847 20.1295521,7.40415936 20.1295521,7.99423703 C20.1295521,8.58431471 19.6362891,9.0691556 19.0359614,9.0691556 L16.0955025,9.0691556 L16.0955025,10.5725382 L19.0359614,10.5725382 C19.6362891,10.5725382 20.1295521,11.0573791 20.1295521,11.6474568 C20.1295521,12.2375345 19.6362891,12.7223753 19.0359614,12.7223753 L16.0955025,12.7223753 L16.0955025,14.3009271 C16.0955025,14.8910048 15.6022396,15.3758457 15.0019119,15.3758457 C14.4015841,15.3758457 13.9083212,14.8910048 13.9083212,14.3009271 L13.9083212,12.7223753 L10.9678623,12.7223753 C10.3675346,12.7223753 9.87427167,12.2375345 9.87427167,11.6474568 C9.87427167,11.0573791 10.3675346,10.5725382 10.9678623,10.5725382 L13.9083212,10.5725382 L13.9083212,9.0691556 L10.9678623,9.0691556 Z" id="路径" fill="#FEFEFE" fill-rule="nonzero"></path>
                <path d="M6.45584487,18.2473064 C6.45584487,17.6572288 6.94910779,17.1723879 7.54943554,17.1723879 L15.6175346,17.1723879 C16.2178623,17.1723879 16.7111253,17.6572288 16.7111253,18.2473064 C16.7111253,18.8373841 16.2178623,19.322225 15.6175346,19.322225 L7.54943554,19.322225 C6.94910779,19.3259835 6.45584487,18.8411426 6.45584487,18.2473064 Z" id="路径" fill="#FEFEFE" fill-rule="nonzero"></path>
                <path d="M23.5441551,25.2305187 C23.5441551,25.8205963 23.0508922,26.3054372 22.4505645,26.3054372 L7.54943554,26.3054372 C6.94910779,26.3054372 6.45584487,25.8205963 6.45584487,25.2305187 C6.45584487,24.640441 6.94910779,24.1556001 7.54943554,24.1556001 L22.4505645,24.1556001 C23.054716,24.1556001 23.5441551,24.6366825 23.5441551,25.2305187 Z" id="路径" fill="#FEFEFE" fill-rule="nonzero"></path>
                <path d="M23.5441551,21.7389126 C23.5441551,22.3289902 23.0508922,22.8138311 22.4505645,22.8138311 L7.54943554,22.8138311 C6.94910779,22.8138311 6.45584487,22.3289902 6.45584487,21.7389126 C6.45584487,21.1488349 6.94910779,20.663994 7.54943554,20.663994 L22.4505645,20.663994 C23.054716,20.663994 23.5441551,21.1488349 23.5441551,21.7389126 Z" id="路径" fill="#FEFEFE" fill-rule="nonzero"></path>
            </g>
        </g>
    </g>
</svg>