<?xml version="1.0" encoding="UTF-8"?>
<svg width="26px" height="26px" viewBox="0 0 26 26" version="1.1" xmlns="http://www.w3.org/2000/svg" xmlns:xlink="http://www.w3.org/1999/xlink">
    <title>回顶部icon-选中</title>
    <defs>
        <linearGradient x1="27.1363416%" y1="0%" x2="72.8636584%" y2="100%" id="linearGradient-1">
            <stop stop-color="#FFA0BB" offset="0%"></stop>
            <stop stop-color="#EE7093" offset="100%"></stop>
        </linearGradient>
    </defs>
    <g id="回顶部icon-选中" stroke="none" stroke-width="1" fill="none" fill-rule="evenodd">
        <g id="返回顶部-" fill-rule="nonzero">
            <rect id="矩形" fill="#000000" opacity="0" x="0" y="0" width="26" height="26"></rect>
            <path d="M18.6807628,11.3535345 C18.7818668,4.71336001 13.3700954,1.70504243 13.0068251,1.50937206 L13.0068251,1.5 L12.9965387,1.50468603 L12.9871666,1.5 L12.9871666,1.50937206 C12.6229363,1.70504243 7.21025054,4.71336001 7.31229172,11.3535345 C6.21027439,12.0726002 5.05584209,13.3506523 5.23935163,15.5612245 C5.42286118,17.7708824 7.54823909,19.23617 8.36187122,19.1565989 C9.1755262,19.077005 8.93864162,18.4637521 8.93864162,18.4637521 L9.21765476,17.3186461 C9.21765476,17.3186461 10.4170501,19.1603477 10.8018532,19.1594105 C11.1473395,19.1312943 12.7905591,19.1565989 12.9871438,19.1594105 L13.0058879,19.1594105 C13.2025183,19.1565989 14.8456922,19.1312943 15.1911784,19.1594105 C15.5750672,19.1594105 16.7753998,17.3186461 16.7753998,17.3186461 L17.0534757,18.4637292 C17.0534757,18.4637292 16.8175283,19.0770278 17.6311605,19.156576 C18.4448155,19.23617 20.5701934,17.7708824 20.7537029,15.5612245 C20.9372125,13.3515895 19.7827802,12.0726002 18.6807628,11.3535345 L18.6807628,11.3535345 Z M12.9965158,11.2561564 C12.8420368,11.2533448 10.8299466,11.1793741 10.6445626,8.805888 C10.7119957,6.54941551 12.8383109,6.34999632 12.9965158,6.33874985 C13.1557037,6.34999632 15.2810817,6.54941551 15.3484919,8.805888 C15.163108,11.1793741 13.1500805,11.2533677 12.9965158,11.2561564 L12.9965158,11.2561564 Z M11.8074298,22.6976382 C11.8074298,22.9682393 11.5921009,23.1864027 11.327123,23.1864027 C11.059625,23.1843521 10.8442976,22.9660996 10.8458478,22.6985983 L10.8458478,20.2838979 C10.8458478,20.014234 11.0612079,19.7951335 11.327123,19.7951335 C11.5920781,19.7951335 11.8074298,20.014234 11.8074298,20.2838979 L11.8074298,22.6985754 L11.8074298,22.6976382 Z M13.5751688,24.005658 C13.5767066,24.2767648 13.3584596,24.4979368 13.0873563,24.5 C12.816253,24.4979368 12.5980059,24.2767648 12.5995437,24.005658 L12.5995437,20.4149697 C12.5995437,20.1415798 12.8176923,19.9196676 13.0864191,19.9196676 C13.3560601,19.9196676 13.5751378,20.1415798 13.5751378,20.4149697 L13.5751378,24.005658 L13.5751688,24.005658 Z M15.2014877,22.1302627 C15.2014877,22.3999038 14.9861589,22.6180671 14.7202438,22.6180671 C14.4531128,22.6155031 14.2383532,22.3974014 14.2399057,22.1302627 L14.2399057,20.407472 C14.2399057,20.1387681 14.4552659,19.9206048 14.7202438,19.9206048 C14.986136,19.9206048 15.2014877,20.1387681 15.2014877,20.4074949 L15.2014877,22.1302627 L15.2014877,22.1302627 Z" id="形状" fill="url(#linearGradient-1)"></path>
        </g>
    </g>
</svg>