<?xml version="1.0" encoding="UTF-8"?>
<svg width="26px" height="26px" viewBox="0 0 26 26" version="1.1" xmlns="http://www.w3.org/2000/svg" xmlns:xlink="http://www.w3.org/1999/xlink">
    <title>我的icon-未选中</title>
    <g id="我的icon-未选中" stroke="none" stroke-width="1" fill="none" fill-rule="evenodd">
        <g fill-rule="nonzero">
            <rect id="矩形" fill="#000000" opacity="0" x="0" y="0" width="26" height="26"></rect>
            <g id="编组" transform="translate(2.000000, 2.000000)" fill="#C3C3C3">
                <path d="M11,1.55202822 C12.2765432,1.55202822 13.5142857,1.80035273 14.6783069,2.2931217 C15.8035274,2.77037039 16.8123457,3.44938273 17.6814815,4.31851851 C18.5506173,5.18765431 19.2296296,6.19647265 19.7068783,7.32169311 C20.1996473,8.48571427 20.4479718,9.72345679 20.4479718,11 C20.4479718,12.2765432 20.1996473,13.5142857 19.7068783,14.6783069 C19.2296296,15.8035274 18.5506173,16.8123457 17.6814815,17.6814815 C16.8123457,18.5506173 15.8035274,19.2296296 14.6783069,19.7068783 C13.5142857,20.1996473 12.2765432,20.4479718 11,20.4479718 C9.72345679,20.4479718 8.48571429,20.1996473 7.32169311,19.7068783 C6.19647265,19.2296296 5.18765431,18.5506173 4.31851851,17.6814815 C3.44938271,16.8123457 2.77037037,15.8035274 2.2931217,14.6783069 C1.80035275,13.5142857 1.55202822,12.2765432 1.55202822,11 C1.55202822,9.72345679 1.80035273,8.48571429 2.2931217,7.32169311 C2.77037039,6.19647265 3.44938273,5.18765431 4.31851851,4.31851851 C5.18765431,3.44938271 6.19647265,2.77037037 7.32169311,2.2931217 C8.48571427,1.80035275 9.72345679,1.55202822 11,1.55202822 M11,0 C4.92380952,0 -8.7178128e-14,4.92380952 -8.7178128e-14,11 C-8.7178128e-14,17.0761905 4.92380952,22 11,22 C17.0761905,22 21.9961199,17.0723104 21.9961199,11 C21.9961199,4.92768959 17.0723104,0 11,0 Z" id="形状"></path>
                <path d="M15.5474427,15.3107584 C15.3805997,15.3107584 15.2176367,15.3689594 15.0857143,15.4737213 C13.9255732,16.389418 12.5015873,16.886067 11,16.886067 C9.49841269,16.886067 8.07442681,16.389418 6.91428571,15.4737213 C6.78236331,15.3689594 6.61940035,15.3107584 6.45255731,15.3107584 C5.7541446,15.3107584 5.44373897,16.1954145 5.99470899,16.6261023 C7.37213404,17.7125221 9.11040565,18.3604938 11,18.3604938 C12.8895944,18.3604938 14.627866,17.7125221 16.005291,16.6261023 C16.5523809,16.1954145 16.2458554,15.3107584 15.5474427,15.3107584 L15.5474427,15.3107584 Z" id="路径"></path>
            </g>
        </g>
    </g>
</svg>