<?xml version="1.0" encoding="UTF-8"?>
<svg width="26px" height="26px" viewBox="0 0 26 26" version="1.1" xmlns="http://www.w3.org/2000/svg" xmlns:xlink="http://www.w3.org/1999/xlink">
    <title>购物车icon-未选中</title>
    <g id="购物车icon-未选中" stroke="none" stroke-width="1" fill="none" fill-rule="evenodd">
        <g fill-rule="nonzero" id="购物车">
            <g>
                <rect id="矩形" fill="#000000" opacity="0" x="0" y="0" width="26" height="26"></rect>
                <path d="M7.1264554,16.85468 L19.2606769,16.85468 C19.8385013,16.85468 20.4163256,16.4786094 20.6089113,15.9145254 L22.9202087,6.13677689 C23.1128393,5.76070626 22.9202087,5.38463564 22.727623,5.00856501 C22.5350374,4.63249438 21.9571681,4.44448101 21.5719743,4.44448101 L5.00776611,4.44448101 L4.42996423,2 L0.77043247,2 C0.385216235,2 0,2.18803531 0,2.56410594 C0,2.94017657 0.385216235,3.31624719 0.77043247,3.31624719 L3.27429305,3.31624719 L4.42994176,8.20512145 L4.42994176,8.20512145 C4.42994176,8.39315677 4.42994176,8.39315677 4.42994176,8.58119208 L6.16339234,15.5384548 C5.39298234,15.9145254 4.62254987,16.85468 4.62254987,17.9829139 C4.62254987,18.7350332 5.00776611,19.2991391 5.39298234,19.6752097 C5.00774364,20.0512804 4.62254987,20.8034216 4.62254987,21.3675056 C4.62254987,22.6837747 5.77819858,23.8119647 7.12643293,23.8119647 C8.47468975,23.8119647 9.63031598,22.8718101 9.63031598,21.5555409 C9.63031598,21.1794703 9.43770787,20.8034216 9.43770787,20.4273291 L17.7197895,20.4273291 C17.5272488,20.8034216 17.5272488,21.1794703 17.5272488,21.5555409 C17.5272488,22.8717881 18.6828526,24 20.0310869,24 C21.3793662,24 22.5350149,22.8717881 22.5350149,21.5555409 C22.5350149,20.2393157 21.5719743,19.2991391 20.2237175,19.1111038 L20.0310869,19.1111038 L7.1264554,19.1111038 L7.1264554,19.1111038 C6.54863105,19.1111038 5.97082917,18.5469979 5.97082917,17.9829139 C6.16341481,17.4188079 6.54863105,16.85468 7.1264554,16.85468 Z M19.8385013,20.4273291 C20.4163256,20.4273291 20.99415,20.991435 20.99415,21.5555409 C20.99415,22.1196688 20.6089113,22.4957175 19.8385013,22.4957175 C19.2606769,22.4957175 18.6828526,21.9315896 18.6828526,21.3674837 C18.6828526,20.8033997 19.2606769,20.4273291 19.8385013,20.4273291 Z M7.1264554,22.4957175 C6.54863105,22.4957175 5.97082917,21.9315896 5.97082917,21.3674837 C5.97082917,20.8033997 6.54863105,20.2392937 7.1264554,20.2392937 L7.1264554,20.2392937 L7.1264554,20.2392937 C7.70427975,20.2392937 8.2821041,20.8033997 8.2821041,21.3674837 C8.2821041,22.1196469 7.70427975,22.4957175 7.1264554,22.4957175 Z M19.2606769,15.5384548 L7.70427975,15.5384548 L6.16341481,8.95726271 L20.8015418,8.95726271 L19.2606769,15.5384548 Z M21.5719518,5.76068432 L21.1867131,7.64101552 L5.77819858,7.64101552 L5.39298234,5.9486977 L21.5719518,5.76068432 Z" id="形状" fill="#C3C3C3"></path>
            </g>
        </g>
    </g>
</svg>