<?xml version="1.0" encoding="UTF-8"?>
<svg width="50px" height="50px" viewBox="0 0 50 50" version="1.1" xmlns="http://www.w3.org/2000/svg" xmlns:xlink="http://www.w3.org/1999/xlink">
    <title>海报icon</title>
    <defs>
        <linearGradient x1="100%" y1="100%" x2="0%" y2="6.123234e-15%" id="linearGradient-1">
            <stop stop-color="#FFBCBC" offset="0%"></stop>
            <stop stop-color="#FB749F" offset="100%"></stop>
        </linearGradient>
        <path d="M2.517,4.6 L0.184,9.665 L3.251,18.466 L16.584,19.133 L27.584,17.466 C27.584,17.466 32.318,4.865 24.717,4.933 L24.717,4.933 C17.117,5 17.716,7.4 12.45,2.6 L12.45,2.6 C11.076,1.348 9.744,0.885 8.524,0.885 L8.524,0.885 C5.067,0.886 2.517,4.6 2.517,4.6" id="path-2"></path>
    </defs>
    <g id="海报icon" stroke="none" stroke-width="1" fill="none" fill-rule="evenodd">
        <g>
            <path d="M25.0001,-0.0004 C38.8071,-0.0004 50.0001,11.1926 50.0001,24.9996 C50.0001,38.8076 38.8071,49.9996 25.0001,49.9996 C11.1931,49.9996 0.0001,38.8076 0.0001,24.9996 C0.0001,11.1926 11.1931,-0.0004 25.0001,-0.0004" id="Fill-1" fill="url(#linearGradient-1)"></path>
            <path d="M16.0001,13.4996 L34.0001,13.4996 C34.8281,13.4996 35.5001,14.1716 35.5001,14.9996 L35.5001,34.9996 C35.5001,35.8286 34.8281,36.4996 34.0001,36.4996 L16.0001,36.4996 C15.1711,36.4996 14.5001,35.8286 14.5001,34.9996 L14.5001,14.9996 C14.5001,14.1716 15.1711,13.4996 16.0001,13.4996 Z" id="Stroke-3" stroke="#FEFEFE"></path>
            <g id="编组" transform="translate(11.000000, 22.000000)">
                <mask id="mask-3" fill="white">
                    <use xlink:href="#path-2"></use>
                </mask>
                <g id="Clip-6"></g>
                <path d="M5.0001,-9.0004 L23.0001,-9.0004 C24.1041,-9.0004 25.0001,-8.1044 25.0001,-7.0004 L25.0001,12.9996 C25.0001,14.1046 24.1041,14.9996 23.0001,14.9996 L5.0001,14.9996 C3.8961,14.9996 3.0001,14.1046 3.0001,12.9996 L3.0001,-7.0004 C3.0001,-8.1044 3.8961,-9.0004 5.0001,-9.0004" id="Fill-5" fill="#FFF4F4" mask="url(#mask-3)"></path>
            </g>
            <path d="M30.0001,16.9996 C31.1041,16.9996 32.0001,17.8956 32.0001,18.9996 C32.0001,20.1046 31.1041,20.9996 30.0001,20.9996 C28.8961,20.9996 28.0001,20.1046 28.0001,18.9996 C28.0001,17.8956 28.8961,16.9996 30.0001,16.9996" id="Fill-7" fill="#FEFEFE"></path>
        </g>
    </g>
</svg>