<?xml version="1.0" encoding="UTF-8"?>
<svg width="50px" height="50px" viewBox="0 0 50 50" version="1.1" xmlns="http://www.w3.org/2000/svg" xmlns:xlink="http://www.w3.org/1999/xlink">
    <title>推荐商品icon</title>
    <defs>
        <linearGradient x1="12.7955252%" y1="19.4222677%" x2="87.6652511%" y2="85.1051549%" id="linearGradient-1">
            <stop stop-color="#FAC3BA" offset="0%"></stop>
            <stop stop-color="#FF9C85" offset="99.9262456%"></stop>
        </linearGradient>
        <linearGradient x1="50%" y1="50%" x2="-47.4533152%" y2="163.264173%" id="linearGradient-2">
            <stop stop-color="#FFFFFF" offset="0%"></stop>
            <stop stop-color="#FFBCB1" offset="100%"></stop>
        </linearGradient>
    </defs>
    <g id="推荐商品icon" stroke="none" stroke-width="1" fill="none" fill-rule="evenodd">
        <g id="海报icon">
            <path d="M25.0001,-0.0004 C38.8071,-0.0004 50.0001,11.1926 50.0001,24.9996 C50.0001,38.8076 38.8071,49.9996 25.0001,49.9996 C11.1931,49.9996 0.0001,38.8076 0.0001,24.9996 C0.0001,11.1926 11.1931,-0.0004 25.0001,-0.0004" id="Fill-1" fill="url(#linearGradient-1)"></path>
            <path d="M24.992267,11 C28.3931784,11 31.1501618,13.7569834 31.1501618,17.1578947 L34.9817407,17.1578947 C35.5210868,17.15806 35.9682846,17.5756638 36.0053197,18.1137368 L37.2321091,35.9032105 C37.2516367,36.1869217 37.1525706,36.466017 36.9585405,36.6739249 C36.7645105,36.8818328 36.4929126,37 36.2085302,37 L13.7760039,37 C13.4916215,37 13.2200236,36.8818328 13.0259936,36.6739249 C12.8319635,36.466017 12.7328973,36.1869217 12.7524249,35.9032105 L13.9792144,18.1137368 C14.0162495,17.5756638 14.4634473,17.15806 15.0027934,17.1578947 L18.8343723,17.1578947 C18.8343723,13.7569834 21.5913557,11 24.992267,11 Z M19.4268986,26.3345263 C19.0494051,26.3344626 18.7023477,26.5416337 18.5232588,26.8739416 C18.3441699,27.2062494 18.3619614,27.6100466 18.5695828,27.9253158 C19.9363987,30.1631573 22.3700316,31.5276198 24.992267,31.5263167 C27.7106354,31.5263167 30.0923723,30.0853684 31.4149512,27.9253158 C31.7108305,27.4416306 31.5585838,26.8096688 31.0748986,26.5137895 C30.5912134,26.2179102 29.9592516,26.3701569 29.6633723,26.8538421 C28.6696591,28.4815226 26.8999934,29.474205 24.9929513,29.4736842 C23.0858023,29.4745892 21.3158534,28.4821526 20.321846,26.8545263 C20.1388742,26.5330743 19.7974613,26.3345263 19.4275828,26.3345263 L19.4268986,26.3345263 Z M24.992267,13.0526316 C22.7249928,13.0526316 20.8870039,14.8906205 20.8870039,17.1578947 L29.0975302,17.1578947 C29.0975302,14.8906205 27.2595413,13.0526316 24.992267,13.0526316 L24.992267,13.0526316 Z" id="形状" fill="url(#linearGradient-2)" fill-rule="nonzero"></path>
        </g>
    </g>
</svg>