<?xml version="1.0" encoding="UTF-8"?>
<svg width="220px" height="220px" viewBox="0 0 220 220" version="1.1" xmlns="http://www.w3.org/2000/svg" xmlns:xlink="http://www.w3.org/1999/xlink">
    <title>二维码边框</title>
    <defs>
        <path d="M8.74925457,0.28466948 C4.02064698,0.28466948 0.187510549,4.11780591 0.187510549,8.84579466 L0.187510549,8.84579466 L0.187510549,209.474037 C0.187510549,214.202644 4.02064698,218.035162 8.74925457,218.035162 L8.74925457,218.035162 L209.377496,218.035162 C214.105485,218.035162 217.938622,214.202644 217.938622,209.474037 L217.938622,209.474037 L217.938622,8.84579466 C217.938622,4.11780591 214.105485,0.28466948 209.377496,0.28466948 L209.377496,0.28466948 L8.74925457,0.28466948 Z M17.6829255,193.354937 L17.6829255,24.9648945 C17.6829255,20.9968495 20.8996906,17.7794655 24.8683544,17.7794655 L24.8683544,17.7794655 L193.257778,17.7794655 C197.225823,17.7794655 200.443207,20.9968495 200.443207,24.9648945 L200.443207,24.9648945 L200.443207,193.354937 C200.443207,197.322982 197.225823,200.539747 193.257778,200.539747 L193.257778,200.539747 L24.8683544,200.539747 C20.8996906,200.539747 17.6829255,197.322982 17.6829255,193.354937 L17.6829255,193.354937 Z" id="path-1"></path>
    </defs>
    <g id="二维码边框" stroke="none" stroke-width="1" fill="none" fill-rule="evenodd">
        <g>
            <path d="M201.104129,194.336923 C201.104129,198.304968 197.887364,201.521733 193.9187,201.521733 L25.5292768,201.521733 C21.560613,201.521733 18.3438478,198.304968 18.3438478,194.336923 L18.3438478,25.9468805 C18.3438478,21.9788354 21.560613,18.7614515 25.5292768,18.7614515 L193.9187,18.7614515 C197.887364,18.7614515 201.104129,21.9788354 201.104129,25.9468805 L201.104129,194.336923 Z M210.038419,1.26665541 L9.4095581,1.26665541 C4.68156935,1.26665541 0.848432925,5.099173 0.848432925,9.82778059 L0.848432925,210.456023 C0.848432925,215.18463 4.68156935,219.017148 9.4095581,219.017148 L210.038419,219.017148 C214.766408,219.017148 218.599544,215.18463 218.599544,210.456023 L218.599544,9.82778059 C218.599544,5.099173 214.766408,1.26665541 210.038419,1.26665541 L210.038419,1.26665541 Z" id="Fill-1" fill="#FFDEDF"></path>
            <g id="编组" transform="translate(0.660984, 0.982110)">
                <mask id="mask-2" fill="white">
                    <use xlink:href="#path-1"></use>
                </mask>
                <g id="Clip-4"></g>
                <path d="M212.536647,204.579887 C212.536647,209.073952 208.894115,212.715865 204.400669,212.715865 L13.725339,212.715865 C9.23189311,212.715865 5.58936146,209.073952 5.58936146,204.579887 L5.58936146,13.9051758 C5.58936146,9.41111111 9.23189311,5.76857947 13.725339,5.76857947 L204.400669,5.76857947 C208.894115,5.76857947 212.536647,9.41111111 212.536647,13.9051758 L212.536647,204.579887 Z M212.536647,-3.06236287 L5.58936146,-3.06236287 C0.712230661,-3.06236287 -3.24158087,0.891448664 -3.24158087,5.76857947 L-3.24158087,212.715865 C-3.24158087,217.592996 0.712230661,221.547426 5.58936146,221.547426 L212.536647,221.547426 C217.413778,221.547426 221.367589,217.592996 221.367589,212.715865 L221.367589,5.76857947 C221.367589,0.891448664 217.413778,-3.06236287 212.536647,-3.06236287 L212.536647,-3.06236287 Z" id="Fill-3" fill="#FFBBBD" mask="url(#mask-2)"></path>
            </g>
            <path d="M201.104129,194.336923 C201.104129,198.304968 197.887364,201.521733 193.9187,201.521733 L25.5292768,201.521733 C21.560613,201.521733 18.3438478,198.304968 18.3438478,194.336923 L18.3438478,25.9468805 C18.3438478,21.9788354 21.560613,18.7614515 25.5292768,18.7614515 L193.9187,18.7614515 C197.887364,18.7614515 201.104129,21.9788354 201.104129,25.9468805 L201.104129,194.336923 Z M210.038419,1.26665541 L9.4095581,1.26665541 C4.68156935,1.26665541 0.848432925,5.099173 0.848432925,9.82778059 L0.848432925,210.456023 C0.848432925,215.18463 4.68156935,219.017148 9.4095581,219.017148 L210.038419,219.017148 C214.766408,219.017148 218.599544,215.18463 218.599544,210.456023 L218.599544,9.82778059 C218.599544,5.099173 214.766408,1.26665541 210.038419,1.26665541 Z" id="Stroke-5" stroke="#1E183D" stroke-width="2"></path>
        </g>
    </g>
</svg>