<?xml version="1.0" encoding="UTF-8"?>
<svg width="51px" height="51px" viewBox="0 0 51 51" version="1.1" xmlns="http://www.w3.org/2000/svg" xmlns:xlink="http://www.w3.org/1999/xlink">
    <title>学员管理icon</title>
    <defs>
        <linearGradient x1="12.7955252%" y1="19.4222677%" x2="87.6652511%" y2="85.1051549%" id="linearGradient-1">
            <stop stop-color="#AACFFF" offset="0%"></stop>
            <stop stop-color="#49A6FF" offset="99.9890734%"></stop>
        </linearGradient>
        <linearGradient x1="50%" y1="50%" x2="151.956485%" y2="-49.6927602%" id="linearGradient-2">
            <stop stop-color="#FFFFFF" offset="0%"></stop>
            <stop stop-color="#9AC8FF" offset="100%"></stop>
        </linearGradient>
    </defs>
    <g id="学员管理icon" stroke="none" stroke-width="1" fill="none" fill-rule="evenodd">
        <g id="作业墙icon">
            <circle id="椭圆形" fill="url(#linearGradient-1)" cx="25.5" cy="25.5" r="25.5"></circle>
            <path d="M17.0120445,19.9478908 C17.0120445,21.8783024 18.0419068,23.6620763 19.7136922,24.6272821 C21.3854777,25.5924879 23.4452023,25.5924879 25.1169878,24.6272821 C26.7887732,23.6620763 27.8186355,21.8783024 27.8186355,19.9478908 C27.8186355,16.9637331 25.3994977,14.5445953 22.41534,14.5445953 C19.4311823,14.5445953 17.0120445,16.9637331 17.0120445,19.9478908 Z M31.8334681,34.4598377 C31.8334681,39.1800541 13,39.1800541 13,34.4598377 C13,29.7396214 17.2155742,26.8985697 22.41534,26.8985697 C27.6151058,26.8985697 31.8334681,29.7396214 31.8334681,34.4598377 L31.8334681,34.4598377 Z M29.2070984,13 C27.8911255,13 26.6866758,13.4711852 25.7498815,14.2518471 C27.8493044,15.2694956 29.3018931,17.4163158 29.3018931,19.9088577 C29.3018931,21.3252014 28.8279198,22.6272339 28.0388937,23.6783394 C28.4152842,23.7619818 28.8028271,23.806591 29.2043104,23.806591 C32.187554,23.806591 34.6076059,21.3865392 34.6076059,18.4032955 C34.6076059,15.4200519 32.1931302,13 29.2070984,13 Z M28.5909332,25.5379876 C28.0221652,25.5379876 26.2740402,25.7080603 25.6857557,25.9868682 C29.3604427,26.7340731 33.3557588,29.5918532 33.3557588,34.1587253 C33.3557588,34.8724733 33.0657986,35.502579 32.5555803,36.0518304 C35.6252544,35.5499763 38.0062746,34.4291689 38.0062746,32.6894081 C38.0090613,27.799119 33.790699,25.5379876 28.5909332,25.5379876 L28.5909332,25.5379876 Z" id="形状" fill="url(#linearGradient-2)" fill-rule="nonzero"></path>
        </g>
    </g>
</svg>