<?xml version="1.0" encoding="UTF-8"?>
<svg width="10px" height="10px" viewBox="0 0 10 10" version="1.1" xmlns="http://www.w3.org/2000/svg" xmlns:xlink="http://www.w3.org/1999/xlink">
    <title>优惠券关闭icon</title>
    <g id="优惠券关闭icon" stroke="none" stroke-width="1" fill="none" fill-rule="evenodd">
        <g>
            <rect id="Rectangle" fill="#333333" opacity="0" x="0" y="0" width="10" height="10"></rect>
            <path d="M5.45918367,5 L8.6516035,1.80758017 C8.78279883,1.67638484 8.78279883,1.46865889 8.6516035,1.3483965 C8.52040816,1.21720117 8.31268222,1.21720117 8.19241983,1.3483965 L5,4.54081633 L1.80758017,1.3483965 C1.67638484,1.21720117 1.46865889,1.21720117 1.3483965,1.3483965 C1.21720117,1.47959184 1.21720117,1.68731778 1.3483965,1.80758017 L4.54081633,5 L1.3483965,8.19241983 C1.21720117,8.32361516 1.21720117,8.53134111 1.3483965,8.6516035 C1.41399417,8.71720117 1.50145773,8.75 1.57798834,8.75 C1.65451895,8.75 1.74198251,8.71720117 1.80758017,8.6516035 L5,5.45918367 L8.19241983,8.6516035 C8.25801749,8.71720117 8.34548105,8.75 8.42201166,8.75 C8.49854227,8.75 8.58600583,8.71720117 8.6516035,8.6516035 C8.78279883,8.52040816 8.78279883,8.31268222 8.6516035,8.19241983 L5.45918367,5 Z" id="Path" stroke="#A2A2A2" stroke-width="0.5" fill="#A2A2A2"></path>
        </g>
    </g>
</svg>