<?xml version="1.0" encoding="UTF-8"?>
<svg width="20px" height="20px" viewBox="0 0 20 20" version="1.1" xmlns="http://www.w3.org/2000/svg" xmlns:xlink="http://www.w3.org/1999/xlink">
    <title>叉叉</title>
    <g id="叉叉" stroke="none" stroke-width="1" fill="none" fill-rule="evenodd">
        <g>
            <path d="M0,10 C0,4.4765625 4.4765625,0 10,0 C15.5234375,0 20,4.4765625 20,10 C20,15.5234375 15.5234375,20 10,20 C4.4765625,20 0,15.5234375 0,10 Z" id="Shape" fill-opacity="0.354895105" fill="#000000" transform="translate(10.000000, 10.000000) scale(1, -1) translate(-10.000000, -10.000000) "></path>
            <path d="M13.8457805,6.89182324 C14.0468462,6.6903523 14.0500378,6.36214963 13.8537593,6.15580438 L13.8537593,6.15580438 C13.6558851,5.95108391 13.3335417,5.94783438 13.1308802,6.14768056 L10,9.27210497 L6.86911975,6.14930532 C6.66805405,5.94783438 6.34411486,5.95108391 6.14624067,6.15742915 L6.14624067,6.15742915 C5.94836649,6.36214963 5.95155801,6.69197706 6.15421947,6.89344801 L9.27073788,10 L6.15421947,13.1081768 C5.95315377,13.3096477 5.94996225,13.6378504 6.14624067,13.8441956 L6.14624067,13.8441956 C6.34411486,14.0489161 6.66645829,14.0521656 6.86911975,13.8523194 L10,10.727895 L13.1308802,13.8506947 C13.331946,14.0521656 13.6558851,14.0489161 13.8537593,13.8425708 L13.8537593,13.8425708 C14.0516335,13.6378504 14.048442,13.3080229 13.8457805,13.106552 L10.7292621,10 L13.8457805,6.89182324 L13.8457805,6.89182324 Z" id="Path" fill="#FFFFFF"></path>
        </g>
    </g>
</svg>