<?xml version="1.0" encoding="UTF-8"?>
<svg width="20px" height="20px" viewBox="0 0 20 20" version="1.1" xmlns="http://www.w3.org/2000/svg" xmlns:xlink="http://www.w3.org/1999/xlink">
    <title>检查错误</title>
    <g id="检查错误" stroke="none" stroke-width="1" fill="none" fill-rule="evenodd">
        <path d="M10,0 C15.5228475,0 20,4.4771525 20,10 C20,15.5228475 15.5228475,20 10,20 C4.4771525,20 0,15.5228475 0,10 C0,4.4771525 4.4771525,0 10,0 Z M6.81844022,6.1036055 C6.61220578,5.90402379 6.43258224,6.0171201 6.21304236,6.23665998 C6.02011337,6.43624169 5.90701707,6.62917068 6.09994606,6.82875239 L6.09994606,6.82875239 L9.27994799,10.0087543 L6.10659878,13.1821035 C5.93362796,13.3484216 6.01346065,13.5546561 6.23300053,13.7741959 C6.45254041,13.9937358 6.65877485,14.0669158 6.82509294,13.9005977 L6.82509294,13.9005977 L9.99844215,10.7272485 L13.1784441,13.9072504 C13.3447622,14.0735685 13.5643021,14.0070413 13.7838419,13.7808487 C14.0033818,13.5546561 14.0898672,13.3816852 13.8902855,13.1821035 L13.8902855,13.1821035 L10.7169363,10.0087543 L13.8969382,6.83540511 C14.09652,6.6358234 13.9900764,6.46285258 13.7904947,6.26327087 C13.5509966,6.02377282 13.3647203,5.93063469 13.1784441,6.11691095 L13.1784441,6.11691095 L9.99844215,9.29026016 Z" id="白色叉" fill="#FB6060"></path>
    </g>
</svg>