<?xml version="1.0" encoding="UTF-8"?>
<svg width="34px" height="34px" viewBox="0 0 34 34" version="1.1" xmlns="http://www.w3.org/2000/svg" xmlns:xlink="http://www.w3.org/1999/xlink">
    <title>优惠券包icon</title>
    <defs>
        <linearGradient x1="12.7955252%" y1="32.0758947%" x2="87.6652511%" y2="70.5779973%" id="linearGradient-1">
            <stop stop-color="#F4ACC2" offset="0%"></stop>
            <stop stop-color="#EF7F9E" offset="100%"></stop>
        </linearGradient>
    </defs>
    <g id="优惠券包icon" stroke="none" stroke-width="1" fill="none" fill-rule="evenodd">
        <g>
            <rect id="矩形" x="0" y="0" width="34" height="34"></rect>
            <path d="M1,8.99456522 C1,6.78842777 2.79086284,5 5,5 L29,5 C31.2091372,5 33,6.78842777 33,8.99456522 L33,13.1222826 C33.0010657,13.7303236 32.5895333,14.2618491 32,14.4138587 C30.70647,14.7493571 29.8033804,15.9153725 29.8033804,17.25 C29.8033804,18.5846275 30.70647,19.7506429 32,20.0861413 C32.5895333,20.2381509 33.0010657,20.7696764 33,21.3777174 L33,25.5054348 C33,27.7115722 31.2091372,29.5 29,29.5 L5,29.5 C2.79086284,29.5 1,27.7115722 1,25.5054348 L1,21.3777174 C0.998934258,20.7696764 1.41046666,20.2381509 2,20.0861413 C3.29230013,19.7493586 4.19398033,18.5837626 4.19398033,17.25 C4.19398033,15.9162374 3.29230013,14.7506414 2,14.4138587 C1.41046666,14.2618491 0.998934258,13.7303236 1,13.1222826 L1,8.99456522 Z" id="路径" fill="url(#linearGradient-1)" fill-rule="nonzero"></path>
            <line x1="10" y1="6.5" x2="10" y2="28" id="直线" stroke="#FFFFFF" stroke-linecap="round" stroke-dasharray="1,3"></line>
            <path d="M16,13.75 C16,12.9215729 16.5803881,12.25 17.296333,12.25 L21.7038654,12.25 C22.4197329,12.2501268 23,12.9216625 23,13.75 C23,14.5783375 22.4197329,15.2498732 21.7038654,15.25 L17.296333,15.25 C16.5803881,15.25 16,14.5784271 16,13.75 L16,13.75 Z" id="路径" fill="#FFFFFF" fill-rule="nonzero"></path>
            <path d="M16,20.75 C16,19.9215729 16.6050081,19.25 17.3513234,19.25 L24.6484697,19.25 C25.1313003,19.249918 25.5774859,19.5357984 25.8189225,19.9999337 C26.0603592,20.464069 26.0603592,21.035931 25.8189225,21.5000663 C25.5774859,21.9642016 25.1313003,22.250082 24.6484697,22.25 L17.3513234,22.25 C16.6050081,22.25 16,21.5784271 16,20.75 L16,20.75 Z" id="路径" fill="#FFFFFF" fill-rule="nonzero"></path>
        </g>
    </g>
</svg>