<?xml version="1.0" encoding="UTF-8"?>
<svg width="18px" height="18px" viewBox="0 0 18 18" version="1.1" xmlns="http://www.w3.org/2000/svg" xmlns:xlink="http://www.w3.org/1999/xlink">
    <title>评论icon</title>
    <g id="评论icon" stroke="none" stroke-width="1" fill="none" fill-rule="evenodd">
        <g fill-rule="nonzero">
            <rect id="矩形" fill="#000000" opacity="0" x="0" y="0" width="18" height="18"></rect>
            <g id="编组-2" transform="translate(1.279688, 1.800000)" fill="#564B4E">
                <path d="M7.70976562,14.6390625 L7.69921875,14.6390625 C7.09453125,14.6355469 6.53203125,14.3929687 6.1171875,13.9535156 L4.81816406,12.5771484 L2.19375,12.5771484 C0.984375,12.5771484 0,11.5927734 0,10.3833984 L0,2.19375 C0,0.984375 0.984375,0 2.19375,0 L13.2820312,0 C14.4914062,0 15.4757812,0.984375 15.4757812,2.19375 L15.4757812,10.3816406 C15.4757812,11.5910156 14.4914062,12.5753906 13.2820312,12.5753906 L10.6242187,12.5753906 L9.28652344,13.9658203 C8.86992187,14.4 8.30917969,14.6390625 7.70976562,14.6390625 Z M2.19375,1.546875 C1.83691406,1.546875 1.546875,1.83691406 1.546875,2.19375 L1.546875,10.3816406 C1.546875,10.7384766 1.83691406,11.0285156 2.19375,11.0285156 L4.84277344,11.0285156 C5.25058594,11.0285156 5.64609375,11.1990234 5.92558594,11.4960938 L7.2421875,12.8917969 C7.36347656,13.0201172 7.52871094,13.0921875 7.70625,13.0921875 L7.70976562,13.0921875 C7.88554688,13.0921875 8.05078125,13.021875 8.17207031,12.8953125 L9.52734375,11.4855469 C9.80683594,11.1955078 10.1970703,11.0285156 10.5996094,11.0285156 L13.2820313,11.0285156 C13.6388672,11.0285156 13.9289063,10.7384766 13.9289063,10.3816406 L13.9289063,2.19375 C13.9289063,1.83691406 13.6388672,1.546875 13.2820313,1.546875 L2.19375,1.546875 Z" id="形状"></path>
                <path d="M11.4275391,5.42988281 L4.04824219,5.42988281 C3.62109375,5.42988281 3.27480469,5.08359375 3.27480469,4.65644531 C3.27480469,4.22929687 3.62109375,3.88300781 4.04824219,3.88300781 L11.4275391,3.88300781 C11.8546875,3.88300781 12.2009766,4.22929687 12.2009766,4.65644531 C12.2009766,5.08359375 11.8546875,5.42988281 11.4275391,5.42988281 L11.4275391,5.42988281 Z M8.74863281,8.96484375 L4.04824219,8.96484375 C3.62109375,8.96484375 3.27480469,8.61855469 3.27480469,8.19140625 C3.27480469,7.76425781 3.62109375,7.41796875 4.04824219,7.41796875 L8.746875,7.41796875 C9.17402344,7.41796875 9.52031916,7.76425781 9.52031916,8.19140625 C9.52207031,8.61855469 9.17578125,8.96484375 8.74863281,8.96484375 L8.74863281,8.96484375 Z" id="形状"></path>
            </g>
        </g>
    </g>
</svg>