<?xml version="1.0" encoding="UTF-8"?>
<svg width="18px" height="18px" viewBox="0 0 18 18" version="1.1" xmlns="http://www.w3.org/2000/svg" xmlns:xlink="http://www.w3.org/1999/xlink">
    <title>点赞icon</title>
    <g id="点赞icon" stroke="none" stroke-width="1" fill="none" fill-rule="evenodd">
        <g fill-rule="nonzero">
            <rect id="矩形" fill="#000000" opacity="0" x="0" y="0" width="18" height="18"></rect>
            <path d="M14.3221174,5.71857651 L12.0890925,5.71857651 L12.0890925,4.08811388 C12.0890925,2.52854093 10.8396619,1.35 9.18261566,1.35 C8.69524911,1.35 8.2433274,1.45633452 7.87115658,1.66900356 C7.23314947,2.02345196 6.85211744,2.63487544 6.85211744,3.32604982 C6.85211744,3.78683274 6.6394484,4.94765125 5.98371886,5.64768683 C5.55838078,6.01099644 5.24823843,6.48064057 5.07987544,7.00345196 L3.38738434,7.00345196 C2.23542705,7.00345196 1.305,7.94274021 1.305,9.0858363 L1.305,13.3214947 C1.305,14.473452 2.24428826,15.403879 3.38738434,15.403879 L5.46090747,15.403879 C5.89510676,15.9444128 6.55969751,16.29 7.30403915,16.29 L12.0270641,16.29 C14.5968149,16.29 16.6880605,14.1987544 16.6880605,11.6290036 L16.6880605,8.08451957 C16.6880605,6.78192171 15.6247153,5.71857651 14.3221174,5.71857651 Z M3.38738434,13.9240569 C3.05065836,13.9240569 2.77596085,13.6493594 2.77596085,13.3126335 L2.77596085,9.07697509 C2.77596085,8.74024911 3.05065836,8.4655516 3.38738434,8.4655516 L4.93809609,8.4655516 L4.93809609,13.9329181 L3.38738434,13.9329181 L3.38738434,13.9240569 Z M15.2170996,11.6112811 C15.2170996,13.3746619 13.7904448,14.8013167 12.0270641,14.8013167 L7.30403915,14.8013167 C6.86097865,14.8013167 6.48880783,14.473452 6.42677936,14.0569751 L6.42677936,7.72120996 C6.47994662,7.32245552 6.68375445,6.97686833 6.97617438,6.73761566 C6.98503559,6.72875445 7.00275801,6.71989324 7.01161922,6.71103203 C8.02179715,5.66540925 8.32307829,4.07925267 8.32307829,3.31718861 C8.32307829,2.99818505 8.71297153,2.81209964 9.18261566,2.81209964 C9.8383452,2.81209964 10.6269929,3.18427046 10.6269929,4.07925267 L10.6269929,6.00213523 C10.6269929,6.64900356 11.1498043,7.18067616 11.8055338,7.18067616 L14.3309786,7.18067616 C14.8272064,7.18067616 15.2259609,7.5794306 15.2259609,8.07565836 L15.2259609,11.6112811 L15.2170996,11.6112811 Z" id="形状" fill="#564B4E"></path>
        </g>
    </g>
</svg>