<?xml version="1.0" encoding="UTF-8"?>
<svg width="14px" height="14px" viewBox="0 0 14 14" version="1.1" xmlns="http://www.w3.org/2000/svg" xmlns:xlink="http://www.w3.org/1999/xlink">
    <title>oval_sel</title>
    <g id="oval_sel" stroke="none" stroke-width="1" fill="none" fill-rule="evenodd">
        <g id="分组" fill-rule="nonzero">
            <rect id="矩形" fill="#000000" opacity="0" x="0" y="0" width="14" height="14"></rect>
            <path d="M7,0 C10.8659932,0 14,3.13400675 14,7 C14,10.8659932 10.8659932,14 7,14 C3.13400675,14 0,10.8659932 0,7 C0,3.13400675 3.13400675,0 7,0 Z" id="路径" fill="#FE5E7E"></path>
            <path d="M6,10.22 C5.64514716,10.22 5.3070417,10.0690677 5.07,9.805 L2.99999999,7.50000001 C2.75078555,7.18939742 2.78776433,6.73817971 3.08422367,6.4722969 C3.380683,6.20641408 3.83325002,6.21857726 4.115,6.49999999 L6,8.59999999 L9.885,4.32999999 C10.169591,4.06584656 10.608741,4.06258395 10.8972254,4.3224798 C11.1857098,4.58237564 11.2281289,5.01948431 10.995,5.33000001 L6.925,9.8 C6.68964328,10.0641138 6.35374783,10.2166285 6,10.22 L6,10.22 Z" id="路径" fill="#FFFFFF"></path>
        </g>
    </g>
</svg>