<?xml version="1.0" encoding="UTF-8"?>
<svg width="34px" height="34px" viewBox="0 0 34 34" version="1.1" xmlns="http://www.w3.org/2000/svg" xmlns:xlink="http://www.w3.org/1999/xlink">
    <title>业绩排行icon</title>
    <defs>
        <linearGradient x1="12.7955252%" y1="22.9138427%" x2="87.6652511%" y2="81.0966078%" id="linearGradient-1">
            <stop stop-color="#AACFFF" offset="0%"></stop>
            <stop stop-color="#49A6FF" offset="99.9890734%"></stop>
        </linearGradient>
    </defs>
    <g id="业绩排行icon" stroke="none" stroke-width="1" fill="none" fill-rule="evenodd">
        <g id="优惠券包icon">
            <rect id="矩形" x="0" y="0" width="34" height="34"></rect>
            <path d="M21.2654413,16.9126495 C21.2654413,16.6442837 21.0438851,16.4264794 20.7708961,16.4264794 L14.3418092,16.4264794 C14.0688203,16.4264794 13.8472641,16.6442836 13.8472641,16.9126495 L13.8472641,32.4700921 C13.8472641,32.738458 14.0688203,32.9562622 14.3418092,32.9562622 L20.7708961,32.9562622 C21.043885,32.9562622 21.2654413,32.738458 21.2654413,32.4700921 L21.2654413,16.9126495 Z M33.8995861,9.74164086 L28.9857855,1.31631335 C28.7503821,0.915223022 28.3646368,0.885080486 28.1292334,1.28617082 L23.2164219,9.7571983 C22.9810184,10.1578025 23.173891,10.5924385 23.644698,10.5924385 L25.2218024,10.5924385 L25.2218024,32.2270071 C25.2218024,32.4944006 25.5660058,32.9562622 25.8380057,32.9562622 L31.2780023,32.9562622 C31.5500021,32.9562622 31.6508893,32.4944006 31.6508893,32.2270071 L31.6508893,10.5924385 L33.47131,10.5924385 C33.942117,10.5924385 34.1349896,10.1427312 33.8995861,9.74164086 Z M2.11962051,10.1981545 C2.11962051,8.28069973 3.70068136,6.72641401 5.65116739,6.72641401 C7.60165342,6.72641401 9.18271427,8.28069977 9.18271427,10.1981545 C9.18271427,12.1156094 7.60165342,13.6698951 5.65116739,13.6698951 C3.70068136,13.6698951 2.11962051,12.1156094 2.11962051,10.1981545 Z M5.76194549,31.497752 C5.76194549,32.4700922 5.14722587,33.0787771 4.21105192,32.9912665 C3.39505245,32.9154239 2.96727089,32.1535954 2.96727089,31.3475254 L2.96727089,23.3130787 C2.96727089,23.9732976 2.16314047,24.5022507 1.48314091,24.5022507 C0.731926854,24.5022507 -7.531753e-13,23.8765498 -7.531753e-13,23.2493904 L-7.531753e-13,20.226871 L-7.531753e-13,17.5266824 C-7.531753e-13,16.0355987 1.10629749,14.9679692 2.62306748,14.9679692 L3.83272489,14.9679692 L5.81090546,18.3711598 L7.78908604,14.9679692 L8.97055438,14.9679692 C10.4873244,14.9679692 11.8690835,16.0355987 11.8690835,17.5271685 L11.8690835,20.2273572 L11.8690835,23.2498765 C11.8690835,23.8770359 11.1371567,24.5027368 10.3859426,24.5027368 C9.70594304,24.5027368 8.90181261,23.9737838 8.90181261,23.3135648 L8.90181261,31.3480116 C8.90181261,32.1540816 8.33654751,32.9154239 7.52005348,32.9917526 C6.58387954,33.0787771 5.83167637,32.4700921 5.83167637,31.497752 L5.76194549,31.497752 Z" id="形状" fill="url(#linearGradient-1)" fill-rule="nonzero"></path>
        </g>
    </g>
</svg>