<?xml version="1.0" encoding="UTF-8"?>
<svg width="24px" height="24px" viewBox="0 0 24 24" version="1.1" xmlns="http://www.w3.org/2000/svg" xmlns:xlink="http://www.w3.org/1999/xlink">
    <title>点评</title>
    <g id="点评" stroke="none" stroke-width="1" fill="none" fill-rule="evenodd">
        <g>
            <rect id="矩形" x="0" y="0" width="24" height="24"></rect>
            <g id="编组-2" transform="translate(3.000000, 4.000000)" stroke="#B2B2B2">
                <path d="M9.66326108,16.1852388 L1.48695652,16.1852388 C0.665733111,16.1852388 -1.88293825e-13,15.554915 -1.88293825e-13,14.7773713 L-1.88293825e-13,1.40786749 C-1.88293825e-13,0.630323748 0.665733111,-1.45838897e-12 1.48695652,-1.45838897e-12 L13.7936959,-1.45838897e-12 C14.6149193,-1.45838897e-12 15.2806524,0.630323748 15.2806524,1.40786749 L15.2806524,5.72704169" id="路径" stroke-linecap="round" transform="translate(7.640326, 8.092619) scale(1, -1) translate(-7.640326, -8.092619) "></path>
                <path d="M15.3802498,0.556552405 C15.2207727,0.556552405 15.0717137,0.616558744 14.9603817,0.724734661 L7.14061369,8.55974153 C6.77526088,8.91705106 6.41685347,9.67063115 6.3745235,10.1734325 L6.24521164,11.6806528 C6.23070439,11.8550343 6.27831182,11.8788684 6.3745235,12.0039769 C6.47073519,12.1290853 6.52647987,12.143791 6.70508768,12.1290853 L8.2488574,12.0039769 C8.76384457,11.9620667 9.53570889,11.6121602 9.9016576,11.2554324 L17.722001,3.42152898 C17.9534185,3.19562748 17.9534185,2.82758461 17.722001,2.60166306 L15.7989466,0.723571062 C15.6887859,0.616558744 15.5397269,0.556552405 15.3802498,0.556552405 Z" id="路径" fill-rule="nonzero"></path>
            </g>
        </g>
    </g>
</svg>