<?xml version="1.0" encoding="UTF-8"?>
<svg width="34px" height="34px" viewBox="0 0 34 34" version="1.1" xmlns="http://www.w3.org/2000/svg" xmlns:xlink="http://www.w3.org/1999/xlink">
    <title>销售统计icon</title>
    <defs>
        <linearGradient x1="12.7955252%" y1="19.4222677%" x2="87.6652511%" y2="85.1051549%" id="linearGradient-1">
            <stop stop-color="#D3CBFF" offset="0%"></stop>
            <stop stop-color="#ABA9FF" offset="100%"></stop>
        </linearGradient>
    </defs>
    <g id="销售统计icon" stroke="none" stroke-width="1" fill="none" fill-rule="evenodd">
        <g id="优惠券包icon">
            <rect id="矩形" x="0" y="0" width="34" height="34"></rect>
            <g id="统计分析" transform="translate(1.000000, 1.000000)" fill-rule="nonzero">
                <rect id="矩形" fill="#000000" opacity="0" x="0" y="0" width="32" height="32"></rect>
                <path d="M0.024,16 C0.096,10.704 1.016,6.32 3.704,3.7056 C6.32,1.016 10.704,0.096 16,0.024 C21.296,0.096 25.68,1.016 28.2944,3.704 C30.984,6.32 31.904,10.704 31.976,16 C31.904,21.296 30.984,25.68 28.296,28.2944 C25.68,30.984 21.296,31.904 16,31.976 C10.704,31.904 6.32,30.984 3.7056,28.296 C1.016,25.68 0.096,21.296 0.024,16 Z" id="路径" fill="url(#linearGradient-1)"></path>
                <g id="编组" transform="translate(8.500000, 8.500000)" fill="#FFFFFF">
                    <path d="M1.7408,14.864 C2.6992,14.864 3.4832,14.08 3.4832,13.1216 L3.4832,5.1056 C3.4832,4.1472 2.6992,3.3632 1.7408,3.3632 C0.7824,3.3632 -6.1817218e-13,4.1472 -6.1817218e-13,5.1056 L-6.1817218e-13,13.1216 C-6.1817218e-13,14.0816 0.784,14.864 1.7408,14.864 Z" id="路径"></path>
                    <path d="M7.9168,14.864 C8.8736,14.864 9.6576,14.08 9.6576,13.1216 L9.6576,1.7408 C9.6576,0.7824 8.8736,1.77635684e-14 7.9152,1.77635684e-14 C6.9568,1.77635684e-14 6.1744,0.7808 6.1744,1.7392 L6.1744,13.1216 C6.1744,14.0816 6.9584,14.864 7.9184,14.864 L7.9168,14.864 Z" id="路径"></path>
                    <path d="M14.0896,14.864 C15.048,14.864 15.832,14.08 15.832,13.1216 L15.832,8.1856 C15.832,7.2272 15.048,6.4432 14.0896,6.4432 C13.1312,6.4432 12.3472,7.2272 12.3472,8.1856 L12.3472,13.1216 C12.3472,14.0816 13.1312,14.864 14.0896,14.864 Z" id="路径"></path>
                </g>
            </g>
        </g>
    </g>
</svg>