<?xml version="1.0" encoding="UTF-8"?>
<svg width="26px" height="26px" viewBox="0 0 26 26" version="1.1" xmlns="http://www.w3.org/2000/svg" xmlns:xlink="http://www.w3.org/1999/xlink">
    <title>首页icon-未选中</title>
    <g id="首页icon-未选中" stroke="none" stroke-width="1" fill="none" fill-rule="evenodd">
        <g fill-rule="nonzero" id="首页">
            <g>
                <rect id="矩形" fill="#000000" opacity="0" x="0" y="0" width="26" height="26"></rect>
                <g id="编组-2" transform="translate(2.000000, 2.000000)" fill="#C3C3C3">
                    <path d="M17.3815755,21.895279 L4.25887835,21.895279 C3.13770089,21.895279 2.07983073,21.5024014 1.27971168,20.7892634 C0.454588914,20.0537816 -8.5603482e-14,19.0687946 -8.5603482e-14,18.0154464 L-8.5603482e-14,8.937766 C-8.5603482e-14,8.06955171 0.399793527,7.23565104 1.09723772,6.6499256 L7.69609189,1.10654762 L8.19217634,1.69706101 L7.69609189,1.10654762 C8.5443564,0.393941592 9.64851004,0.000797991071 10.8047991,-5.39674125e-14 L10.8087891,-5.39674125e-14 C11.9637481,-5.39674125e-14 13.0668378,0.391281622 13.9156343,1.10175967 L20.5392262,6.64699963 C21.2390644,7.23299107 21.6407199,8.06822173 21.6407199,8.93856399 L21.6407199,18.0154464 C21.6407199,19.0687946 21.1863969,20.0537816 20.3612742,20.7892634 C19.5608891,21.5024014 18.502753,21.895279 17.3815755,21.895279 Z M10.8085231,1.54251674 L10.8058631,1.54251674 C10.011596,1.54304874 9.2596224,1.80771577 8.68826079,2.2875744 L2.08940662,7.83095238 C1.74201451,8.12275112 1.54278274,8.5262686 1.54278274,8.9375 L1.54278274,18.0151804 C1.54278274,19.303936 2.7613151,20.3522303 4.25887835,20.3522303 L17.3818415,20.3522303 C18.8794048,20.3522303 20.0979371,19.303936 20.0979371,18.0151804 L20.0979371,8.93856399 C20.0979371,8.5262686 19.8979074,8.12221912 19.5489193,7.83015439 L12.9247954,2.28464844 C12.3534338,1.80611979 11.6017262,1.54251674 10.8085231,1.54251674 Z" id="形状"></path>
                    <path d="M14.2648884,19.2403627 C13.8387612,19.2403627 13.493497,18.8950986 13.493497,18.4689714 L13.493497,14.0762965 C13.493497,13.3620945 13.2155301,12.690718 12.7106678,12.1858557 C12.2058054,11.6809933 11.5344289,11.4030264 10.8202269,11.4030264 C9.34607143,11.4030264 8.14695685,12.602407 8.14695685,14.0762965 L8.14695685,18.4692374 C8.14695685,18.8953646 7.80169271,19.2406287 7.37556548,19.2406287 C6.94943824,19.2406287 6.60417411,18.8953646 6.60417411,18.4692374 L6.60417411,14.0762965 C6.60417411,11.7514825 8.49541295,9.86024368 10.8202269,9.86024368 C11.9464583,9.86024368 13.0053925,10.2986068 13.8015216,11.0950019 C14.5976507,11.891131 15.0362798,12.9500651 15.0362798,14.0765625 L15.0362798,18.4695033 C15.0362798,18.8950986 14.6910156,19.2403627 14.2648884,19.2403627 Z" id="路径"></path>
                </g>
            </g>
        </g>
    </g>
</svg>