<?xml version="1.0" encoding="UTF-8"?>
<svg width="34px" height="34px" viewBox="0 0 34 34" version="1.1" xmlns="http://www.w3.org/2000/svg" xmlns:xlink="http://www.w3.org/1999/xlink">
    <title>工具管理icon</title>
    <defs>
        <linearGradient x1="12.7955252%" y1="42.3555669%" x2="87.6652511%" y2="58.7762887%" id="linearGradient-1">
            <stop stop-color="#AACFFF" offset="0%"></stop>
            <stop stop-color="#49A6FF" offset="99.9890734%"></stop>
        </linearGradient>
        <linearGradient x1="12.7955252%" y1="24.8326906%" x2="87.6652511%" y2="78.89365%" id="linearGradient-2">
            <stop stop-color="#AACFFF" offset="0%"></stop>
            <stop stop-color="#49A6FF" offset="99.9890734%"></stop>
        </linearGradient>
    </defs>
    <g id="工具管理icon" stroke="none" stroke-width="1" fill="none" fill-rule="evenodd">
        <g>
            <rect id="矩形" x="0" y="0" width="34" height="34"></rect>
            <g id="编组" transform="translate(2.000000, 3.500000)" fill-rule="nonzero">
                <path d="M16.3333333,13.3 L16.3333333,14.2333333 C16.3333333,14.3616667 16.2283333,14.4666667 16.1,14.4666667 L13.7666667,14.4666667 C13.6383333,14.4666667 13.5333333,14.3616667 13.5333333,14.2333333 L13.5333333,13.3 C13.5333333,13.1716667 13.6383333,13.0666667 13.7666667,13.0666667 L16.1,13.0666667 C16.2283333,13.0666667 16.3333333,13.1716667 16.3333333,13.3 Z" id="路径" fill="url(#linearGradient-1)"></path>
                <path d="M29.8666667,13.3 L29.8666667,25.2291667 C29.8666667,26.25875 29.0295833,27.0958333 28,27.0958333 L1.86666667,27.0958333 C0.837083333,27.0958333 0,26.25875 0,25.2291667 L0,13.3 C0,13.1716667 0.105,13.0666667 0.233333333,13.0666667 L11.4333333,13.0666667 C11.5616667,13.0666667 11.6666667,13.1716667 11.6666667,13.3 L11.6666667,14.4666667 C11.6666667,15.49625 12.50375,16.3333333 13.5333333,16.3333333 L16.3333333,16.3333333 C17.3629167,16.3333333 18.2,15.49625 18.2,14.4666667 L18.2,13.3 C18.2,13.1716667 18.305,13.0666667 18.4333333,13.0666667 L29.6333333,13.0666667 C29.7616667,13.0666667 29.8666667,13.1716667 29.8666667,13.3 Z M26.1333333,3.7625 L21.7,3.7625 C21.5716667,3.7625 21.4666667,3.6575 21.4666667,3.52916667 L21.4666667,2.8 C21.4666667,1.25416667 20.2125,0 18.6666667,0 L11.2,0 C9.65416667,0 8.4,1.25416667 8.4,2.8 L8.4,3.52916667 C8.4,3.6575 8.295,3.7625 8.16666667,3.7625 L3.73333333,3.7625 C1.67125,3.7625 0,5.43375 0,7.49583333 L0,10.9666667 C0,11.095 0.105,11.2 0.233333333,11.2 L29.6333333,11.2 C29.7616667,11.2 29.8666667,11.095 29.8666667,10.9666667 L29.8666667,7.49583333 C29.8666667,5.43375 28.1954167,3.7625 26.1333333,3.7625 Z M10.2666667,2.8 C10.2666667,2.28375 10.68375,1.86666667 11.2,1.86666667 L18.6666667,1.86666667 C19.1829167,1.86666667 19.6,2.28375 19.6,2.8 L19.6,3.5 C19.6,3.62833333 19.495,3.73333333 19.3666667,3.73333333 L10.5,3.73333333 C10.3716667,3.73333333 10.2666667,3.62833333 10.2666667,3.5 L10.2666667,2.8 Z" id="形状" fill="url(#linearGradient-2)"></path>
            </g>
        </g>
    </g>
</svg>